<svg width="203" height="155" viewBox="0 0 203 155" fill="none" xmlns="http://www.w3.org/2000/svg">
<path d="M7.74175 154.322H6.40697V4.34717H7.74175V154.322ZM1.33479 154.322H0V4.34717H1.33479V154.322Z" fill="black"/>
<path d="M20.5019 154.322H15.9636V4.34717H20.5019V154.322ZM14.0949 154.322H9.55664V4.34717H14.0949V154.322Z" fill="black"/>
<path d="M30.0591 154.322H28.7244V25.3962H30.0591V154.322ZM26.8557 154.322H25.5209V25.3962H26.8557V154.322ZM23.6522 154.322H22.3174V25.3962H23.6522V154.322Z" fill="black"/>
<path d="M45.97 154.322H41.4317V25.3962H45.97V154.322ZM39.6164 154.322H35.0781V25.3962H39.6164V154.322Z" fill="black"/>
<path d="M49.1737 25.3962H47.8389V154.322H49.1737V25.3962Z" fill="black"/>
<path d="M61.9345 154.322H57.3962V25.3962H61.9345V154.322ZM55.5275 154.322H50.9893V25.3962H55.5275V154.322Z" fill="black"/>
<path d="M77.8444 154.322H76.5096V25.3962H77.8444V154.322ZM74.6943 154.322H73.3595V25.3962H74.6943V154.322ZM71.4908 154.322H70.156V25.3962H71.4908V154.322ZM65.0838 154.322H63.749V25.3962H65.0838V154.322Z" fill="black"/>
<path d="M84.2512 25.3962H79.7129V154.322H84.2512V25.3962Z" fill="black"/>
<path d="M87.4022 25.3962H86.0674V154.322H87.4022V25.3962Z" fill="black"/>
<path d="M93.8088 25.3962H89.2705V154.322H93.8088V25.3962Z" fill="black"/>
<path d="M103.365 154.322H101.977V25.3962H103.312V154.322H103.365ZM100.162 154.322H98.8271V25.3962H100.162V154.322Z" fill="black"/>
<path d="M109.719 25.3962H105.181V154.322H109.719V25.3962Z" fill="black"/>
<path d="M112.923 25.3962H111.588V154.322H112.923V25.3962Z" fill="black"/>
<path d="M119.277 25.3962H114.738V154.322H119.277V25.3962Z" fill="black"/>
<path d="M128.834 154.322H127.499V25.3962H128.834V154.322ZM125.683 154.322H124.349V25.3962H125.683V154.322Z" fill="black"/>
<path d="M135.24 25.3962H130.702V154.322H135.24V25.3962Z" fill="black"/>
<path d="M144.798 154.322H143.463V25.3962H144.798V154.322ZM138.444 154.322H137.109V25.3962H138.444V154.322Z" fill="black"/>
<path d="M151.152 25.3962H146.613V154.322H151.152V25.3962Z" fill="black"/>
<path d="M157.558 154.322H156.223V25.3962H157.558V154.322ZM154.354 154.322H153.02V25.3962H154.354V154.322Z" fill="black"/>
<path d="M163.911 25.3962H159.373V154.322H163.911V25.3962Z" fill="black"/>
<path d="M170.265 25.3962H168.931V154.322H170.265V25.3962Z" fill="black"/>
<path d="M176.672 25.3962H172.134V154.322H176.672V25.3962Z" fill="black"/>
<path d="M186.229 154.322H184.895V25.3962H186.229V154.322ZM179.876 154.322H178.541V25.3962H179.876V154.322Z" fill="black"/>
<path d="M199.843 154.322H195.08V4.34717H199.843V154.322ZM193.12 154.322H188.357V4.34717H193.12V154.322Z" fill="black"/>
<path d="M202.139 4.34717H200.805V154.322H202.139V4.34717Z" fill="black"/>
<g style="mix-blend-mode:multiply">
<path d="M32.3932 17.783L31.6542 19.2175H25.9812L27.0245 18.1525L30.3935 14.3922C31.4803 13.1751 32.3932 11.6536 32.3932 9.97995C32.3932 8.00202 30.7196 6.69789 28.8286 6.69789C27.1767 6.69789 25.3292 7.84987 25.3292 9.67565C25.3292 9.91474 25.4596 10.1538 25.7421 10.1538C26.3725 10.1538 26.5681 9.32788 26.5681 8.69755C27.0897 7.8064 27.9157 7.48037 28.8068 7.48037C30.5457 7.48037 31.4803 8.87144 31.4803 10.0017C31.4803 11.6536 30.2849 13.3924 29.1981 14.5661L25.0249 19.0871V20H32.1976L33.1539 17.9569L32.3932 17.783ZM42.7525 6.69789C40.6877 6.69789 38.4272 8.34979 38.4272 13.4794C38.4272 18.6089 40.6877 20.2608 42.7525 20.2608C44.8174 20.2608 47.0779 18.6089 47.0779 13.4794C47.0779 8.34979 44.8174 6.69789 42.7525 6.69789ZM46.165 13.4794C46.165 17.9569 44.5131 19.4783 42.7525 19.4783C40.992 19.4783 39.3401 17.9569 39.3401 13.4794C39.3401 9.00185 40.992 7.48037 42.7525 7.48037C44.5131 7.48037 46.165 9.00185 46.165 13.4794ZM58.9587 6.69789C54.3073 6.74136 52.3076 10.5016 52.3076 14.6965C52.3076 19.2827 54.9811 20.2608 56.5895 20.2608C58.9587 20.2608 60.5454 18.196 60.5454 15.9572C60.5454 13.7184 58.9587 11.6536 56.5895 11.6536C55.2854 11.6536 53.9595 12.3926 53.2857 13.5446L53.2423 13.5011C53.4379 10.3277 55.481 7.41516 58.9587 7.48037V6.69789ZM53.2857 15.7833C53.2857 13.8923 54.7203 12.4361 56.5895 12.4361C58.3718 12.4361 59.6325 14.1532 59.6325 15.9572C59.6325 17.7612 58.3718 19.4783 56.5895 19.4783C54.5029 19.4783 53.2857 17.5874 53.2857 15.7833ZM68.7964 18.935C68.7964 19.6522 69.405 20.2608 70.1222 20.2608C70.8395 20.2608 71.4481 19.6522 71.4481 18.935C71.4481 18.2177 70.8395 17.6091 70.1222 17.6091C69.405 17.6091 68.7964 18.2177 68.7964 18.935ZM79.7643 6.95872V7.74119H86.3284L81.1554 20.2608H82.09L87.5021 6.95872H79.7643ZM97.4919 13.6098C99.1004 13.6098 100.839 14.6313 100.839 16.4789C100.839 18.2394 99.1221 19.4783 97.4919 19.4783C95.8618 19.4783 94.1447 18.2394 94.1447 16.4789C94.1447 14.6313 95.8835 13.6098 97.4919 13.6098ZM97.4919 20.2608C99.7524 20.2608 101.752 18.6741 101.752 16.5658C101.752 14.7183 100.339 13.4576 98.6005 13.1316C100.035 12.5447 101.274 11.3275 101.274 9.67565C101.274 7.74119 99.4264 6.69789 97.4919 6.69789C95.5575 6.69789 93.71 7.74119 93.71 9.67565C93.71 11.3275 94.9489 12.5447 96.3834 13.1316C94.6446 13.4576 93.2318 14.7183 93.2318 16.5658C93.2318 18.6741 95.2315 20.2608 97.4919 20.2608ZM97.4919 7.48037C98.8613 7.48037 100.361 8.1107 100.361 9.69739C100.361 11.2841 99.4264 11.9361 97.4919 12.8056C95.5575 11.9361 94.6229 11.2841 94.6229 9.69739C94.6229 8.1107 96.1226 7.48037 97.4919 7.48037ZM107.134 6.95872V7.74119H113.698L108.525 20.2608H109.46L114.872 6.95872H107.134ZM123.536 18.935C123.536 19.6522 124.144 20.2608 124.862 20.2608C125.579 20.2608 126.188 19.6522 126.188 18.935C126.188 18.2177 125.579 17.6091 124.862 17.6091C124.144 17.6091 123.536 18.2177 123.536 18.935ZM141.394 6.95872H135.547L135.134 12.3491C135.917 12.11 136.742 11.9144 137.568 11.9144C139.677 11.9144 141.068 13.3707 141.068 15.479C141.068 17.9786 139.177 19.4783 136.764 19.4783C135.808 19.4783 134.982 19.3045 134.112 18.9567L133.895 19.6957C134.851 20.0652 135.786 20.2608 136.829 20.2608C139.677 20.2608 141.981 18.3698 141.981 15.4138C141.981 12.7404 140.133 11.1319 137.547 11.1319C137.025 11.1319 136.503 11.2623 135.982 11.371L136.286 7.74119H141.394V6.95872ZM155.079 6.95872H149.232L148.819 12.3491C149.601 12.11 150.427 11.9144 151.253 11.9144C153.362 11.9144 154.753 13.3707 154.753 15.479C154.753 17.9786 152.862 19.4783 150.449 19.4783C149.493 19.4783 148.667 19.3045 147.797 18.9567L147.58 19.6957C148.536 20.0652 149.471 20.2608 150.514 20.2608C153.362 20.2608 155.666 18.3698 155.666 15.4138C155.666 12.7404 153.818 11.1319 151.232 11.1319C150.71 11.1319 150.188 11.2623 149.667 11.371L149.971 7.74119H155.079V6.95872ZM167.851 11.0015V15.6964H162.047C163.873 12.7186 165.634 9.63218 166.547 6.24145L165.699 5.98062C164.808 9.41483 163.112 12.5447 161.33 15.566V16.4789H167.851V19.2175H165.634V20H170.611V19.2175H168.698V16.4789H170.611V15.6964H168.698V11.0015H167.851ZM179.601 13.6098C181.209 13.6098 182.948 14.6313 182.948 16.4789C182.948 18.2394 181.231 19.4783 179.601 19.4783C177.971 19.4783 176.254 18.2394 176.254 16.4789C176.254 14.6313 177.993 13.6098 179.601 13.6098ZM179.601 20.2608C181.862 20.2608 183.861 18.6741 183.861 16.5658C183.861 14.7183 182.448 13.4576 180.71 13.1316C182.144 12.5447 183.383 11.3275 183.383 9.67565C183.383 7.74119 181.536 6.69789 179.601 6.69789C177.667 6.69789 175.819 7.74119 175.819 9.67565C175.819 11.3275 177.058 12.5447 178.493 13.1316C176.754 13.4576 175.341 14.7183 175.341 16.5658C175.341 18.6741 177.341 20.2608 179.601 20.2608ZM179.601 7.48037C180.97 7.48037 182.47 8.1107 182.47 9.69739C182.47 11.2841 181.536 11.9361 179.601 12.8056C177.667 11.9361 176.732 11.2841 176.732 9.69739C176.732 8.1107 178.232 7.48037 179.601 7.48037Z" fill="black"/>
</g>
</svg>
