<svg width="127" height="57" viewBox="0 0 127 57" fill="none" xmlns="http://www.w3.org/2000/svg">
<g clip-path="url(#clip0_735_570)">
<path d="M19.574 55.9535V54.3488H21.3087L21.4617 53.9002H19.574V52.2689H21.7089L21.8619 51.8159H19.0781V56.4065H21.7089L21.8619 55.9535H19.574Z" fill="#1C2226" fill-opacity="0.5"/>
<path d="M24.9037 56.4774L26.8753 51.9313L26.3795 51.7773L24.9037 55.3006L23.4353 51.7773L22.9336 51.9313L24.9037 56.4774Z" fill="#1C2226" fill-opacity="0.5"/>
<path d="M28.8796 55.9535V54.3488H30.6158L30.7674 53.9002H28.8796V52.2689H31.016L31.169 51.8159H28.3838V56.4065H31.016L31.169 55.9535H28.8796Z" fill="#1C2226" fill-opacity="0.5"/>
<path d="M36.4588 56.4776V51.7893L35.9645 51.9433V55.2874L32.6201 51.7642V56.4065H33.116V52.9795L36.4588 56.4776Z" fill="#1C2226" fill-opacity="0.5"/>
<path d="M41.4894 52.2879L41.6409 51.835H38.1833L38.0303 52.2879H39.5884V56.4063H40.0843V52.2879H41.4894Z" fill="#1C2226" fill-opacity="0.5"/>
<path d="M43.5043 52.9659C43.4949 52.855 43.5119 52.7434 43.5538 52.6405C43.5958 52.5375 43.6615 52.4461 43.7456 52.3738C43.9486 52.2403 44.1894 52.1773 44.4313 52.1946C44.7075 52.1925 44.9812 52.2484 45.2346 52.3589C45.4212 52.4365 45.5896 52.5525 45.729 52.6994V52.1561C45.5906 52.0259 45.4275 51.9252 45.2494 51.8601C44.9884 51.7593 44.7108 51.7091 44.4313 51.712C44.194 51.7096 43.9583 51.7502 43.7353 51.8319C43.504 51.9107 43.3046 52.0634 43.1675 52.2668C43.0305 52.4702 42.9632 52.7131 42.9761 52.9585C42.9749 53.1948 43.0609 53.4232 43.2174 53.5995C43.3727 53.7684 43.5584 53.906 43.7648 54.0051C43.9553 54.0985 44.1519 54.1786 44.3533 54.2449C44.5446 54.3071 44.7314 54.3752 44.9154 54.4507C45.082 54.5162 45.2367 54.6093 45.3729 54.726C45.4313 54.7765 45.4783 54.8389 45.5107 54.9091C45.5432 54.9793 45.5604 55.0557 45.5613 55.1331C45.5677 55.25 45.5474 55.3668 45.502 55.4746C45.4566 55.5823 45.3873 55.6782 45.2994 55.7549C45.1199 55.9118 44.8271 55.9917 44.4166 55.9962C44.237 55.9912 44.0593 55.9582 43.8898 55.8985C43.7067 55.8389 43.529 55.7636 43.3587 55.6735C43.2188 55.5978 43.0863 55.5091 42.9629 55.4085V55.9695C43.1368 56.12 43.3361 56.2379 43.5514 56.3174C43.8283 56.4226 44.1221 56.4758 44.418 56.4743C44.9801 56.4743 45.3994 56.3613 45.676 56.1353C45.8174 56.0128 45.9285 55.8589 46.0005 55.6857C46.0725 55.5125 46.1035 55.3249 46.091 55.1376C46.0935 54.8869 46.0015 54.6446 45.8335 54.4596C45.6667 54.2837 45.4666 54.1432 45.2449 54.0465C45.0351 53.9516 44.8205 53.8676 44.602 53.7949C44.4254 53.7342 44.2547 53.6691 44.0899 53.5965C43.9389 53.5345 43.7996 53.4469 43.678 53.3375C43.6247 53.2913 43.5817 53.2343 43.5518 53.1703C43.5219 53.1063 43.5057 53.0366 43.5043 52.9659Z" fill="#1C2226" fill-opacity="0.5"/>
<path d="M59.0215 55.1734L57.2853 51.7775L56.3643 56.4065H56.8601L57.4692 53.1394L59.0215 56.26L60.5782 53.1394L61.1755 56.4065H61.6714L60.7621 51.7642L59.0215 55.1734Z" fill="#1C2226" fill-opacity="0.5"/>
<path d="M64.9139 51.7642L62.9688 56.4139H63.4646L63.8913 55.3969H65.9379L66.3631 56.4139H66.859L64.9139 51.7642ZM64.0811 54.9336L64.9139 52.9381L65.754 54.9336H64.0811Z" fill="#1C2226" fill-opacity="0.5"/>
<path d="M72.2089 56.4776V51.7893L71.713 51.9433V55.2874L68.3701 51.7642V56.4065H68.866V52.9795L72.2089 56.4776Z" fill="#1C2226" fill-opacity="0.5"/>
<path d="M75.66 51.7642L73.7148 56.4139H74.2107L74.6359 55.3969H76.684L77.1092 56.4139H77.6051L75.66 51.7642ZM74.8272 54.9336L75.66 52.9381L76.4986 54.9336H74.8272Z" fill="#1C2226" fill-opacity="0.5"/>
<path d="M83.0321 55.7548V54.2745H81.5004L81.3533 54.7289H82.5304V55.5727C82.3903 55.6975 82.2326 55.8008 82.0625 55.8792C81.7916 56.0043 81.4944 56.0606 81.1968 56.0433C80.8993 56.0261 80.6105 55.9356 80.3557 55.78C80.0778 55.6091 79.8479 55.3696 79.6877 55.0842C79.5218 54.7883 79.4346 54.4543 79.4347 54.1146C79.4347 53.7763 79.5202 53.4437 79.6833 53.1479C79.8402 52.8627 80.0672 52.6226 80.3425 52.4507C80.6261 52.2751 80.9526 52.1824 81.2856 52.1827C81.7637 52.1812 82.2241 52.3646 82.5716 52.6949C82.6317 52.7492 82.6864 52.8092 82.7349 52.874V52.2094C82.5303 52.0492 82.2998 51.9256 82.0537 51.8437C81.8768 51.7844 81.6936 51.7461 81.5078 51.7297C81.434 51.7228 81.3598 51.7204 81.2856 51.7223C80.866 51.7224 80.454 51.8354 80.0924 52.0495C79.6443 52.3173 79.296 52.7257 79.1008 53.212C78.9057 53.6983 78.8746 54.2355 79.0123 54.7413C79.1499 55.2471 79.4488 55.6934 79.8629 56.0118C80.277 56.3302 80.7836 56.5031 81.3048 56.5039C81.3997 56.5041 81.4946 56.4977 81.5887 56.4846C81.819 56.4551 82.0439 56.3928 82.2567 56.2996C82.5499 56.174 82.814 55.9885 83.0321 55.7548Z" fill="#1C2226" fill-opacity="0.5"/>
<path d="M85.2263 55.9535V54.3488H86.961L87.114 53.9002H85.2263V52.2689H87.3612L87.5142 51.8159H84.7305V56.4065H87.3612L87.5142 55.9535H85.2263Z" fill="#1C2226" fill-opacity="0.5"/>
<path d="M91.4072 55.1734L89.6725 51.7775L88.75 56.4065H89.2458L89.8564 53.1394L91.4072 56.26L92.9654 53.1394L93.5627 56.4065H94.0586L93.1493 51.7642L91.4072 55.1734Z" fill="#1C2226" fill-opacity="0.5"/>
<path d="M96.2322 55.9535V54.3488H97.9684L98.1214 53.9002H96.2322V52.2689H98.3686L98.5216 51.8159H95.7363V56.4065H98.3686L98.5216 55.9535H96.2322Z" fill="#1C2226" fill-opacity="0.5"/>
<path d="M103.814 56.4776V51.7893L103.318 51.9433V55.2874L99.9736 51.7642V56.4065H100.469V52.9795L103.814 56.4776Z" fill="#1C2226" fill-opacity="0.5"/>
<path d="M108.841 52.2879L108.993 51.835H105.535L105.382 52.2879H106.94V56.4063H107.436V52.2879H108.841Z" fill="#1C2226" fill-opacity="0.5"/>
<path d="M104.728 37.7777H102.202V20.8174L90.1367 37.2492L91.7552 40.6866H99.0928V43.8205H102.143V40.6851H105.736C105.208 39.7947 104.865 38.8055 104.728 37.7777ZM98.8132 37.8103H93.1544L98.8058 30.0251L98.8132 37.8103Z" fill="#1C2226" fill-opacity="0.5"/>
<path d="M118.823 29.8496V35.7103C118.813 37.0659 118.305 38.3699 117.399 39.3727C116.976 39.875 116.449 40.2787 115.855 40.5555C115.262 40.8324 114.615 40.9758 113.961 40.9758C113.307 40.9758 112.66 40.8324 112.066 40.5555C111.473 40.2787 110.946 39.875 110.523 39.3727C109.613 38.372 109.103 37.067 109.094 35.7103V21.0845H105.95V36.0656C105.948 37.498 106.327 38.9049 107.046 40.1409C107.745 41.3385 108.737 42.3363 109.927 43.0395C111.153 43.7614 112.547 44.1419 113.967 44.1419C115.387 44.1419 116.781 43.7614 118.006 43.0395C119.215 42.3263 120.218 41.3076 120.915 40.0843C121.612 38.8609 121.978 37.4756 121.979 36.0656V26.0214L118.823 29.8496Z" fill="#1C2226" fill-opacity="0.5"/>
<path d="M56.5836 32.0388L54.4296 34.9921H61.4376C60.9226 36.7685 59.9942 38.1458 58.6523 39.1238C57.2952 40.1079 55.661 40.6297 53.9882 40.613C52.5712 40.6146 51.1818 40.2188 49.9759 39.4702C48.7885 38.7274 47.8103 37.6907 47.1347 36.4591C46.4225 35.1591 46.0513 33.6979 46.0562 32.2135C46.0514 30.7394 46.4228 29.2888 47.1347 28.0005C47.8116 26.7761 48.7899 25.7474 49.9759 25.0131C51.1838 24.2701 52.5724 23.8777 53.9882 23.8792C55.6312 23.9127 57.0079 24.2157 58.1182 24.7881C59.2276 25.3595 59.9148 25.7592 60.6107 26.455C60.6107 26.455 62.0997 24.3322 62.6573 23.589C61.7848 22.7882 61.0389 22.2922 59.8618 21.6498C58.364 20.8326 56.4051 20.4018 53.9853 20.3574C51.9258 20.3556 49.9049 20.9185 48.1396 21.9858C46.3867 23.0468 44.9363 24.546 43.9293 26.3376C42.9223 28.1291 42.3929 30.1523 42.3926 32.2106C42.4181 34.4212 42.9468 36.4118 43.9787 38.1823C44.9822 39.9255 46.4152 41.379 48.1396 42.4027C49.9108 43.4527 51.9295 44.0053 53.9853 44.003C56.258 43.9773 58.2438 43.4439 59.9427 42.4027C61.6226 41.3841 62.9957 39.9253 63.9153 38.1823C64.8614 36.4059 65.4028 34.5687 65.4028 32.0359C64.5612 32.0388 56.5836 32.0477 56.5836 32.0388Z" fill="#1C2226" fill-opacity="0.5"/>
<path d="M70.6146 43.4875H67.1143V25.8685L70.6146 21.0811V43.4875Z" fill="#1C2226" fill-opacity="0.5"/>
<path d="M89.2876 38.2264C88.6945 38.8397 88.0237 39.3718 87.2925 39.8089C86.0855 40.4942 84.7219 40.8513 83.3361 40.8451C81.8906 40.8391 80.4768 40.4185 79.2604 39.6327C78.0382 38.8455 77.0311 37.763 76.331 36.484C75.5958 35.1564 75.2099 33.6619 75.2099 32.1422C75.2099 30.6224 75.5958 29.1279 76.331 27.8003C77.031 26.5249 78.0377 25.4464 79.259 24.6635C80.4766 23.8814 81.89 23.4635 83.3346 23.4585C84.853 23.4713 86.1733 23.8024 87.2954 24.4518C88.4404 25.1236 89.4232 26.0422 90.1734 27.1416C90.1734 27.1416 91.4534 25.3651 92.0729 24.5421C90.999 23.2653 89.6601 22.2406 88.1505 21.5401C86.6408 20.8396 84.997 20.4803 83.3346 20.4874C81.3183 20.4818 79.3387 21.0289 77.6081 22.0699C75.9254 23.0896 74.5327 24.529 73.5649 26.2489C72.5644 28.0026 72.0538 29.9695 72.0332 32.1496C72.0282 34.2129 72.556 36.2421 73.5649 38.0384C74.5327 39.7641 75.925 41.2108 77.6081 42.2396C79.3355 43.2916 81.3169 43.8462 83.3361 43.8428C85.3074 43.8439 87.2451 43.3297 88.9595 42.3506C89.5492 41.9923 90.1026 41.5768 90.6118 41.1101C89.4686 38.5905 90.4117 40.589 89.2876 38.2264Z" fill="#1C2226" fill-opacity="0.5"/>
<path d="M11.9834 37.5113L3.9175 29.9083L3.92339 43.4875H0.262695V20.2935L11.9834 32.2458L23.7011 20.2935V43.4875H20.0404L20.0463 29.9083L11.9834 37.5113Z" fill="#1C2226" fill-opacity="0.5"/>
<path d="M24.5664 43.4567L34.4597 20.3574L44.353 43.436H40.7614L39.6564 40.7107H33.0752L35.2027 37.8122H38.4838L34.5097 27.3743L28.1579 43.4567H24.5664Z" fill="#1C2226" fill-opacity="0.5"/>
<path d="M126.8 16.8947L124.142 21.1418L126.8 25.3904L121.963 24.1602L118.769 28.015L118.438 23.007L113.805 21.1418L118.438 19.278L118.769 14.2686L121.963 18.1249L126.8 16.8947Z" fill="#1C2226" fill-opacity="0.5"/>
<path d="M117.838 7.50908L116.158 10.1944L117.838 12.8798L114.781 12.1011L112.761 14.5392L112.552 11.3728L109.624 10.1944L112.552 9.01607L112.761 5.84961L114.781 8.28626L117.838 7.50908Z" fill="#1C2226" fill-opacity="0.5"/>
<path d="M121.999 1.81286L120.925 3.52858L121.999 5.2443L120.045 4.7469L118.755 6.30422L118.621 4.28207L116.751 3.52858L118.621 2.77508L118.755 0.75293L120.045 2.31025L121.999 1.81286Z" fill="#1C2226" fill-opacity="0.5"/>
<path d="M53.2463 52.6108L52.3576 54.0319L53.2463 55.453L51.6278 55.0415L50.5596 56.3309L50.4478 54.6551L48.8984 54.0319L50.4478 53.4072L50.5596 51.7314L51.6278 53.0223L53.2463 52.6108Z" fill="#1C2226" fill-opacity="0.5"/>
</g>
<defs>
<clipPath id="clip0_735_570">
<rect width="126.537" height="55.7513" fill="white" transform="translate(0.262695 0.753418)"/>
</clipPath>
</defs>
</svg>
