<svg width="108" height="56" viewBox="0 0 108 56" fill="none" xmlns="http://www.w3.org/2000/svg">
<path d="M63.3961 15.308C65.2958 16.5641 66.8622 14.6537 66.8622 14.6537C67.0972 14.9298 68.0346 15.2624 68.8655 15.0209C70.4098 14.5736 71.2159 11.443 71.1647 11.2069C71.1136 10.9709 70.6905 11.2069 70.6905 11.2069C69.554 13.8476 68.6167 13.4155 68.6167 13.4155C68.2544 13.3686 68.1341 13.1505 68.3014 12.2491C68.607 10.6161 68.8973 8.67811 68.9927 8.3841C69.1545 7.91201 69.431 7.81953 69.7531 7.81263C69.4545 7.43855 68.3885 7.25082 68.007 7.66217C67.876 7.79108 67.7689 7.942 67.6903 8.10802C67.6406 8.01692 66.9631 7.46478 65.5225 8.32474C63.1086 9.76031 61.4357 14.016 63.3961 15.308ZM67.1166 8.57735C67.7083 8.62152 67.4208 9.06047 67.2811 9.75755C67.0889 10.9764 66.6686 13.0497 66.6686 13.0497C66.6686 13.0497 65.9027 14.3693 64.6169 13.4279C63.8385 12.8634 64.7165 10.6893 65.3801 9.82657C66.0437 8.96385 66.5525 8.53731 67.1166 8.58425" fill="#1C2226" fill-opacity="0.5"/>
<path d="M107.798 27.6709C107.705 27.1795 106.935 27.5922 106.935 27.5922C104.834 32.8859 103.143 31.8437 103.143 31.8437C102.486 31.6919 102.265 31.2157 102.58 29.377C103.162 26.0421 103.713 22.0749 103.899 21.4731C104.195 20.5234 104.7 20.3688 105.289 20.4075C104.744 19.5793 102.811 19.0271 102.109 19.8222C101.978 19.9685 101.629 20.3509 101.517 20.7029C101.429 20.5069 100.202 19.2549 97.5685 20.805C93.8356 22.9929 91.0567 29.424 92.4102 33.173C91.9747 33.8287 91.4009 34.3463 90.7359 34.0992C89.3257 33.5719 89.7239 31.4945 89.9327 29.9733C90.1594 28.3431 90.8106 24.4519 91.206 22.5263C91.5599 20.7912 89.7737 20.6849 89.099 20.8216C87.9114 21.0576 87.0915 22.2613 87.5782 22.097C88.6621 21.7174 88.2197 22.8825 88.0634 23.6403C87.986 24.0337 87.05 29.6931 86.4486 32.7009C85.4808 34.5589 84.3347 34.9716 83.5535 34.4029C82.7392 33.8107 83.2051 32.2206 83.5936 30.9796C84.1605 29.1727 84.6098 27.9428 85.2527 25.4044C85.8956 22.8659 84.09 21.5394 82.2014 22.4394C81.6373 22.7071 81.217 22.7803 80.8977 22.7541C80.8382 22.7334 80.7843 22.7113 80.7318 22.6906L80.5423 22.4366C80.5396 22.245 80.5615 22.0539 80.6073 21.8679C80.8092 21.0521 79.7985 20.2736 78.5459 21.1777C77.7164 21.774 77.3113 23.7079 78.6137 23.9909C78.9261 25.3878 78.8542 28.2879 78.5584 30.0479C78.1989 32.1626 77.5076 33.7914 76.7085 34.8805C76.2306 35.4612 75.625 35.9241 74.9388 36.2333C74.0996 36.6101 72.883 36.2816 72.117 34.7066C71.8026 34.057 71.6109 33.3551 71.5516 32.6361C72.4516 32.4538 74.643 31.6698 76.3905 28.3169C78.2818 24.6811 77.6251 19.6414 72.4267 24.0502C69.0519 26.9131 67.773 32.0397 68.7311 35.4147C67.5421 37.4687 65.8886 37.4466 66.1139 34.7052C66.5135 29.8933 69.4321 26.0876 67.1633 24.6286C65.7642 23.73 64.7162 23.9702 63.8258 24.2145C62.2898 24.641 61.5861 25.8972 61.1077 26.8496L61.1754 24.7418C61.1754 24.7418 61.1754 23.9536 59.9989 24.2021C58.3398 24.5513 58.4781 25.8268 58.4781 25.9151C58.4781 26.2395 58.467 29.6158 56.4374 29.6793L56.3849 28.9892C55.9369 25.7853 54.9788 25.3188 53.2561 25.1393C51.7837 24.9847 50.5712 26.5197 50.5712 26.5197C50.5712 26.5197 48.8402 26.2657 47.7038 29.3936C47.1715 30.0161 45.7378 29.9195 45.3341 29.8546C45.0963 27.831 44.2875 27.3479 43.2602 27.4625C41.8666 27.6116 41.0302 30.0217 42.6063 31.079C43.281 31.529 43.5962 31.6312 43.5962 31.6312C43.5962 31.6312 44.2543 38.2141 41.1173 40.6656C38.984 42.3303 38.7946 38.6737 39.1278 36.5397C39.4817 34.2718 40.3555 28.3818 40.3555 28.3818C40.3555 28.3818 43.8216 26.0545 46.2203 21.2992C48.7393 16.3133 47.1259 10.3944 43.899 10.6428C40.7675 10.8899 39.1748 17.419 38.0535 22.4407C37.777 23.6831 37.5821 24.8398 37.3401 26.6122C36.2341 26.9987 36.0032 26.0103 36.3032 25.7287C36.8783 25.1876 36.1027 25.1159 36.1027 25.1159C36.1027 25.1159 35.6423 25.04 35.2179 25.5134C34.5888 26.2202 34.3884 27.0691 35.0879 27.9442C35.4792 28.4329 36.2576 28.7959 37.1742 28.7545C36.9475 30.5931 36.6212 32.5726 36.4912 33.7804C36.3696 35.1123 36.1729 36.4363 35.9023 37.7461C34.8861 40.8478 32.8827 42.1302 31.9993 41.4538C31.2071 40.845 31.6647 39.2024 32.0435 37.9242C32.5966 36.0538 33.0417 34.7949 33.675 32.1654C34.3082 29.5358 32.544 28.1816 30.7011 29.1161C30.148 29.3922 29.7402 29.4709 29.4291 29.4488C29.3724 29.4253 29.3185 29.4046 29.2687 29.3812L29.0849 29.1258C29.0834 28.9269 29.1057 28.7286 29.1512 28.535C29.3475 27.6902 28.6286 27.0511 27.4051 27.9829C26.5935 28.6027 25.999 30.5338 27.2668 30.8236C27.5682 32.2606 27.5613 35.1828 27.1424 36.98C26.375 40.2556 25.1114 42.6906 23.6666 42.3358C23.0071 42.1757 22.7901 41.6843 23.1136 39.7739C23.697 36.3078 24.2501 32.1819 24.4367 31.5649C24.7353 30.5752 25.2372 30.4164 25.8276 30.4606C25.2897 29.6048 23.3555 29.0347 22.6477 29.8574C22.5094 30.012 22.1652 30.4095 22.0545 30.774C21.9647 30.5669 20.7397 29.2721 18.1032 30.8858C13.679 33.5885 10.4093 42.7251 13.9555 45.8268C14.6662 46.4479 15.2897 46.8827 16.9294 46.9076C19.8328 46.949 21.0245 44.7653 21.0245 44.7653C21.4393 45.4126 22.9421 45.9372 24.4146 45.4554C27.2115 44.5375 29.6254 38.025 28.9438 31.2916C29.9545 31.4821 30.372 31.1287 30.802 31.6146C31.1601 32.0163 31.0536 33.6147 30.3402 36.0207C29.7015 38.181 27.5751 41.8734 30.0333 43.868C31.0343 44.6866 33.1952 44.5582 34.4824 43.2648C35.952 41.7851 36.3101 40.2832 36.3101 40.2832C36.3101 40.2832 36.1152 43.7341 39.2812 43.5519C42.6422 43.3504 44.7976 41.0963 45.3534 32.6885C45.3714 32.4124 45.3852 32.1667 45.3921 31.921C45.7654 31.921 46.8687 31.921 47.0927 31.7733C46.0102 37.4839 46.1664 40.6808 48.89 41.6953C51.4464 42.6478 56.1374 40.1631 56.5771 32.066L56.5867 32.1336C57.3778 31.7458 58.0585 31.1658 58.5666 30.4468C58.4601 33.6617 57.4439 39.7132 57.4052 40.4489L57.4301 40.6062L59.9491 40.246L60.675 34.0785C61.0206 31.6643 62.0423 26.7461 64.065 26.1608C68.5237 24.8702 61.9663 32.2344 63.3267 37.3734C64.2115 40.7305 67.8781 40.1604 69.2717 36.7233C69.9035 37.8276 70.8935 38.573 72.247 38.6972C73.6987 38.8256 75.1504 38.4681 76.1582 37.8524C79.1003 36.0497 79.8317 31.3192 79.8317 31.3192C80.3408 29.0879 80.4953 26.7905 80.2893 24.5113C81.3262 24.7031 81.8668 24.3732 82.312 24.8467C82.677 25.2332 82.5678 26.7792 81.8419 29.1148C81.1921 31.2074 79.0188 34.7742 81.5378 36.7233C82.565 37.5142 85.055 37.6702 86.2316 36.323C86.5592 35.9489 86.8565 35.6328 87.0957 35.0337C87.4278 35.5312 87.871 35.9449 88.3904 36.2424C88.9097 36.5398 89.4912 36.713 90.0889 36.7481C91.6844 36.8862 92.7669 35.9199 93.4748 34.8156C93.5176 34.8571 93.5591 34.9012 93.6048 34.9399C97.0515 37.8386 99.9286 34.131 99.9286 34.131C100.35 34.7521 102.054 35.5762 103.57 35.2035C106.384 34.5216 107.895 28.1637 107.798 27.6709ZM75.6052 25.7163C75.1282 29.0292 72.7654 30.6083 71.5764 31.2074C72.0589 26.9559 75.9716 23.1889 75.6052 25.7163ZM45.1184 12.7603C47.1729 14.3325 45.8512 18.4846 45.1931 20.1452C43.4828 24.4395 40.4799 25.6018 40.4799 25.6018C40.4799 25.6018 43.0653 11.1881 45.1184 12.7644V12.7603ZM21.2789 34.2428C20.9112 36.8296 20.1148 41.2191 20.1148 41.2191C20.1148 41.2191 18.059 44.9461 16.1358 42.4173C15.1224 41.0852 16.3487 36.7302 17.8212 34.0772C18.7793 32.3503 19.8107 31.1963 21.001 31.6726C22.0006 32.0743 21.5471 32.7589 21.2775 34.2428H21.2789ZM52.6616 26.9945C52.7999 26.706 53.1455 26.7847 53.8271 27.203C54.5087 27.6212 54.7244 29.3411 54.7244 29.3411C54.2465 29.2313 53.7956 29.0266 53.3985 28.7393C52.746 28.2727 52.5289 27.283 52.6616 26.9945ZM51.3192 38.9125C50.1606 39.1983 48.9384 38.8518 48.5084 36.7233C47.4867 31.6422 50.7026 27.7289 50.7026 27.7289C50.7026 27.7289 50.6085 30.1418 51.9247 31.3178C53.476 32.6982 55.1198 32.3517 55.1198 32.3517C55.1738 32.0839 54.3829 38.1492 51.3192 38.9112V38.9125ZM100.75 24.0585C100.385 26.5514 99.5912 30.7781 99.5912 30.7781C99.5912 30.7781 97.8727 34.0564 95.5403 31.9072C94.1315 30.6111 96.0685 25.5769 97.2907 23.8943C98.5128 22.2116 99.4392 21.4096 100.471 21.5835C101.545 21.763 101.024 22.6298 100.754 24.0585" fill="#1C2226" fill-opacity="0.5"/>
<path d="M53.7268 20.4071C56.2154 20.4761 57.916 19.2034 59.1299 17.2944C67.1059 22.439 75.2118 19.9171 74.8911 15.9982C74.674 13.3397 73.1172 14.0947 73.1172 14.0947C73.1172 14.0947 73.4781 15.0182 73.1546 15.736C72.3914 17.4531 69.3733 19.5375 59.8585 15.9568C60.8525 13.8476 61.4526 11.2774 61.9475 8.88249C64.808 8.03633 66.3372 4.48467 66.1312 2.30509C65.9252 0.125506 64.3518 -1.08921 61.8839 1.34574C61.0544 2.17396 60.3382 4.54403 59.5668 7.26748C58.2284 7.03419 58.9667 6.36472 58.6736 6.16319C58.4151 5.97684 56.9841 6.86993 57.8607 8.25995C58.057 8.57053 58.5437 8.78173 59.105 8.91148C58.5063 11.0289 57.8524 13.2085 57.0726 14.9464C49.2598 12.7378 48.2077 20.2635 53.7296 20.4112L53.7268 20.4071ZM64.2343 1.67979C66.0966 0.233174 65.6168 5.91334 62.3098 7.1253C62.842 4.5247 63.3342 2.37963 64.2343 1.67979ZM56.5763 15.9403C55.7758 17.4117 54.8508 18.3821 53.7254 18.3932C50.3451 18.4249 51.1566 13.7552 56.5763 15.9403Z" fill="#1C2226" fill-opacity="0.5"/>
<path d="M9.64565 55.443C-14.8602 50.3715 17.2165 2.43722 28.1042 14.0474C30.0522 16.1345 29.0789 23.888 23.4035 25.8605C23.4035 25.8605 21.2854 26.53 20.46 24.5616C19.9913 23.4407 21.4029 22.2385 22.0984 22.8817C22.2034 22.988 21.8661 24.349 23.3786 23.7983C27.1115 22.4455 27.7655 17.6405 26.835 15.6776C22.6127 6.79915 -2.33699 43.1467 10.2526 50.7014C13.5804 52.7002 16.5654 52.4324 18.906 51.1583C18.906 51.1583 20.8928 50.0954 21.3794 48.5149C21.8661 46.9344 22.4592 49.1485 22.4592 49.1485C20.413 52.754 16.8446 56.9296 9.65118 55.443" fill="#1C2226" fill-opacity="0.5"/>
<path d="M92.0896 15.0747C93.2965 14.6468 93.7238 15.3977 93.7238 15.3977C93.7238 15.3977 94.1869 16.1058 93.309 17.1756C92.4864 18.1736 90.9711 18.0521 90.3973 18.4179C89.6176 18.9162 89.5042 19.3607 89.5042 19.3607C89.2277 19.0211 89.2747 18.2661 89.5885 17.5469C90.2978 15.9222 91.4813 15.2859 92.0923 15.0705" fill="#1C2226" fill-opacity="0.5"/>
</svg>
