<svg width="176" height="44" viewBox="0 0 176 44" fill="none" xmlns="http://www.w3.org/2000/svg">
<g clip-path="url(#clip0_735_607)">
<path fill-rule="evenodd" clip-rule="evenodd" d="M7.70733 35.0372L9.75736 28.3112H17.955L19.8477 35.0372H26.7843L19.543 9.69878C19.0711 7.97701 18.2945 7.50879 16.5467 7.50879H6.44635V9.85485H7.24039C8.66118 9.85485 9.13311 10.167 9.13311 11.0935C9.13311 11.5618 9.13311 12.0325 8.66118 13.4396L1.41992 35.0249L7.70733 35.0372ZM17.0086 23.9312H10.7012L14.0122 12.9813L17.0086 23.9312Z" fill="#808385"/>
<path fill-rule="evenodd" clip-rule="evenodd" d="M35.138 35.0372V9.54023C35.138 8.30154 34.5063 7.50879 33.088 7.50879H26.9404V9.85485H27.2551C28.5035 9.85485 29.0029 10.3231 29.0029 11.4181V35.0372H35.138Z" fill="#808385"/>
<path fill-rule="evenodd" clip-rule="evenodd" d="M46.3333 35.0372V9.54023C46.3333 8.30154 45.5443 7.50879 44.2833 7.50879H38.1357V9.85485H38.4529C39.5565 9.85485 40.1858 10.3231 40.1858 11.4181V35.0372H46.3333Z" fill="#808385"/>
<path fill-rule="evenodd" clip-rule="evenodd" d="M57.5267 35.0377V16.4252C57.5267 15.1717 56.7377 14.3913 55.634 14.3913H49.3291V16.5813H49.6437C50.9047 16.5813 51.3766 17.2056 51.3766 18.3006V35.0377H57.5267ZM57.684 10.0163C57.684 8.13845 56.423 7.04346 54.0584 7.04346C51.8511 7.04346 50.4303 8.13845 50.4303 10.0163C50.4303 11.8941 51.8511 12.8306 54.0584 12.8306C56.4305 12.8256 57.679 11.8917 57.679 10.0113L57.684 10.0163Z" fill="#808385"/>
<path fill-rule="evenodd" clip-rule="evenodd" d="M63.5171 20.0217L64.1488 19.8657C65.7244 19.2389 66.6708 18.9267 67.7744 18.7707C68.3962 18.6455 69.0305 18.5923 69.6646 18.6121C71.5574 18.6121 72.3464 19.2389 72.3464 21.1167V21.5849C69.35 22.0532 68.5635 22.2092 67.1427 22.5239C66.2754 22.6902 65.4295 22.9519 64.6207 23.3042C62.0988 24.4017 60.9951 26.2771 60.9951 29.406C60.9951 33.3153 62.5707 35.1931 66.039 35.1931C67.4119 35.216 68.7682 34.8938 69.9818 34.2567C70.887 33.721 71.7324 33.0915 72.5037 32.3788V33.0031C72.5037 34.4127 73.1355 35.037 74.2366 35.037H80.0721V32.847H79.9148C78.8086 32.847 78.1794 32.3788 78.1794 31.2813V21.1242C78.1794 15.9613 76.4315 14.0835 71.2427 14.0835C69.5073 14.0835 67.9317 14.3981 66.3561 14.7103C64.7805 15.0224 63.989 15.3346 62.0988 16.2735L63.5171 20.0292V20.0217ZM72.3464 25.021V29.0864C71.0846 30.3399 69.8236 30.9667 68.5635 30.9667C67.1427 30.9667 66.6708 30.3424 66.6708 28.7767C66.6708 27.211 67.1427 26.4331 68.4037 25.9624C69.5073 25.4917 70.4537 25.3357 72.3464 25.0235V25.021Z" fill="#808385"/>
<path fill-rule="evenodd" clip-rule="evenodd" d="M89.5306 35.0373V20.9585C90.9489 19.7198 91.8953 19.2392 93.3135 19.2392C94.7318 19.2392 95.2063 19.8659 95.2063 21.8974V35.0274H101.199V20.9585C101.199 17.9856 100.884 16.8931 100.095 15.7981C99.1515 14.7031 97.8905 14.2324 96.1551 14.2324C93.7905 14.2324 91.8978 15.0153 89.2185 17.3613V16.2663C89.2185 15.0277 88.7441 14.391 87.4831 14.391H81.333V16.581H81.6501C82.9111 16.581 83.383 17.2053 83.383 18.3002V35.0373H89.5306Z" fill="#808385"/>
<path fill-rule="evenodd" clip-rule="evenodd" d="M120.43 30.967H111.129L120.118 18.61V14.3984H106.869C105.294 14.3984 104.662 15.0227 104.662 16.5884V20.3342H106.869V19.866C106.869 18.771 107.344 18.3003 108.605 18.3003H113.491L104.502 30.6574V35.0373H120.425V30.967H120.43Z" fill="#808385"/>
<path fill-rule="evenodd" clip-rule="evenodd" d="M174.979 22.2095C174.979 9.38425 165.363 0 152.434 0C139.665 0 130.211 9.38425 130.211 22.2095C130.211 34.8788 139.67 44.4216 152.599 44.4216C165.368 44.4216 174.984 34.8788 174.984 22.2095H174.979ZM171.196 22.2095C171.196 33.0034 163.313 40.9805 152.434 40.9805C141.715 40.9805 133.989 33.0034 133.989 22.2095C133.989 11.2621 141.715 3.44106 152.434 3.44106C163.313 3.44106 171.196 11.2621 171.196 22.2095ZM146.444 33.7838V13.7642H143.133C141.4 13.7642 140.611 14.5471 140.611 16.2664V33.7838H146.444ZM158.584 33.7838H164.417V16.2664C164.417 14.5471 163.788 13.7642 161.895 13.7642H158.584V33.7838ZM155.43 33.7838V10.6353C155.43 8.75995 154.801 8.13318 152.909 8.13318H147.548V10.6353H148.019C149.283 10.6353 149.598 10.9475 149.598 12.201V33.7838H155.43Z" fill="#808385"/>
</g>
<defs>
<clipPath id="clip0_735_607">
<rect width="176" height="44" fill="white"/>
</clipPath>
</defs>
</svg>
