<svg width="197" height="32" viewBox="0 0 197 32" fill="none" xmlns="http://www.w3.org/2000/svg">
<path d="M0.569278 19.136C1.23337 19.2183 3.00727 19.3006 4.47808 19.3006C5.14218 19.3006 6.15392 19.1863 6.31437 18.1166L6.44362 17.303C6.55506 16.5395 6.50602 16.0228 5.49428 16.0228H3.67581C1.00161 16.0228 1.00161 14.0434 1.14424 12.9875L1.31806 11.8035C1.67908 9.33488 3.18554 8.93258 4.9104 8.96458C6.30799 8.97333 7.70117 9.12649 9.0688 9.42173L8.84595 10.8983C7.95455 10.8663 5.38285 10.752 5.01737 10.752C3.94323 10.7017 3.32371 10.848 3.13652 12.1006L3.02509 12.864C2.82006 14.1623 3.37273 14.1623 4.21066 14.1623H6.06031C8.16403 14.1623 8.46711 15.8675 8.28883 17.1795L8.16403 18.2675C7.87878 20.928 5.83746 21.0926 4.44688 21.0926C3.07264 21.1178 1.70083 20.9642 0.364258 20.6355L0.569278 19.136Z" fill="#808385"/>
<path d="M15.8228 8.97852C18.5594 8.97852 20.3779 9.79222 19.5712 15.2276C18.7778 20.4711 16.946 21.0059 14.1604 21.0059C11.4862 21.0059 9.5563 20.3431 10.3942 14.9351C11.25 9.36708 13.0862 8.97852 15.8228 8.97852ZM14.3342 19.2323C16.2641 19.2323 17.2001 18.5831 17.7349 15.0768C18.3678 10.9625 17.4185 10.7431 15.6445 10.7431C13.7949 10.7431 12.8589 10.9031 12.226 15.0768C11.6778 18.6654 12.2483 19.2323 14.3342 19.2323Z" fill="#808385"/>
<path d="M22.5268 9.05518H24.3453L22.9056 18.3215C22.7809 19.1809 23.3156 19.1672 23.797 19.1672H28.0802L27.8128 20.9364H22.9859C21.8003 20.9364 20.7573 20.3512 21.007 18.7284L22.5268 9.05518Z" fill="#808385"/>
<path d="M35.0729 8.97852C37.8095 8.97852 39.628 9.79222 38.8213 15.2276C38.0279 20.4711 36.1961 21.0059 33.4104 21.0059C30.7362 21.0059 28.8063 20.3431 29.6442 14.9351C30.5 9.36708 32.3363 8.97852 35.0729 8.97852ZM33.5842 19.2323C35.5141 19.2323 36.4502 18.5831 36.9849 15.0768C37.6179 10.9625 36.6684 10.7431 34.8946 10.7431C33.0449 10.7431 32.109 10.9031 31.476 15.0768C30.9279 18.6654 31.4983 19.2323 33.5842 19.2323Z" fill="#808385"/>
<path d="M75.8833 9.05518H80.7235C82.3371 9.05518 84.2357 9.96946 83.6964 13.3889C83.1125 17.2015 80.9419 17.046 79.5024 16.9089C78.919 16.8543 78.3417 16.7457 77.7775 16.5844L77.109 20.9364H74.0381L75.8833 9.05518ZM79.6005 14.2483C80.2022 14.2483 80.4918 13.7912 80.6122 12.95C80.7325 12.1089 80.5498 11.734 79.9926 11.734H78.5397L78.143 14.2483H79.6005Z" fill="#808385"/>
<path d="M85.2452 11.6517C85.6107 9.31575 87.2062 9.05518 88.6146 9.05518C90.2211 9.05434 91.8265 9.14132 93.4237 9.31576L93.0137 11.9626H89.105C88.2805 11.9626 88.2135 12.4198 88.1555 12.8769L88.062 13.526L91.9529 13.7043L91.5429 16.3145L87.6029 16.4609L87.4736 17.238C87.331 18.0975 87.8703 18.0837 88.3294 18.0837H92.0777L91.6677 20.7124C89.9919 20.9409 86.921 20.9867 86.921 20.9867C85.7489 21.0185 83.8679 20.6117 84.2468 18.1295L85.2452 11.6517Z" fill="#808385"/>
<path d="M94.9358 9.05518H99.794C101.849 9.05518 103.213 10.3215 102.753 13.2746C102.308 16.0997 101.14 16.342 100.489 16.438L102.103 20.9317H98.6085L97.4229 16.566L96.8525 16.502L96.1705 20.9317H93.0996L94.9358 9.05518ZM98.6085 14.134C99.4152 14.134 99.5399 13.7135 99.6693 12.8677C99.7806 12.1546 99.6693 11.734 98.9873 11.734H97.6101L97.2312 14.134H98.6085Z" fill="#808385"/>
<path d="M104.295 11.9763C104.66 9.64033 106.274 9.05518 107.695 9.05518C109.302 9.05434 110.907 9.14132 112.505 9.31576L112.108 11.9626H108.199C107.375 11.9626 107.308 12.4198 107.232 12.8769L107.12 13.59L111.029 13.7683L110.633 16.3832L106.661 16.5295L105.98 20.9455H102.913L104.295 11.9763Z" fill="#808385"/>
<path d="M118.558 8.97314C121.294 8.97314 123.273 9.91485 122.418 15.4782C121.611 20.7217 119.556 20.9961 116.708 20.9961C113.86 20.9961 111.993 20.0817 112.83 14.6691C113.655 9.10571 115.884 8.97314 118.558 8.97314ZM117.136 18.1754C118.495 18.1754 118.954 17.5902 119.364 15.0761C119.81 12.3331 119.587 11.7983 118.148 11.7983C116.708 11.7983 116.365 12.1731 115.919 15.0761C115.505 17.5582 115.567 18.1754 117.118 18.1754H117.136Z" fill="#808385"/>
<path d="M124.796 9.05518H129.654C131.709 9.05518 133.073 10.3215 132.614 13.2746C132.168 16.0997 131 16.342 130.35 16.438L131.963 20.9317H128.469L127.283 16.566L126.713 16.502L126.031 20.9317H122.96L124.796 9.05518ZM128.469 14.134C129.276 14.134 129.4 13.7135 129.529 12.8677C129.641 12.1546 129.529 11.734 128.848 11.734H127.47L127.092 14.134H128.469Z" fill="#808385"/>
<path d="M135.689 9.05518H139.95L139.901 15.7249L141.893 9.05518H146.242L145.658 20.9409H142.637L142.953 14.4677L140.961 20.9409H137.369V14.4677L135.724 20.9409H132.604L135.689 9.05518Z" fill="#808385"/>
<path d="M152.122 9.05518H155.745L157.421 20.9409H154.269L153.935 18.8655H150.963L150.07 20.9409H146.67L152.122 9.05518ZM153.735 16.1775L153.369 12.9775L152.072 16.1775H153.735Z" fill="#808385"/>
<path d="M160.452 9.05518H163.571L165.947 15.2037L166.879 9.05518H169.949L168.114 20.9409H165.043L162.641 14.9524L161.721 20.9409H158.638L160.452 9.05518Z" fill="#808385"/>
<path d="M175.345 8.92773C177.622 8.92773 178.143 9.05573 179.428 9.57688L179.048 12.0272C177.996 11.8547 176.933 11.763 175.866 11.7529C174.529 11.7529 173.985 11.6889 173.478 14.9986C173.067 17.6592 173.272 18.1986 174.868 18.1986C176.463 18.1986 178.113 18.0522 178.113 18.0522L177.733 20.5026C176.691 20.9232 175.818 21.0694 173.478 21.0237C170.567 20.9734 169.805 18.4454 170.406 14.45C170.977 10.6786 172.197 8.92773 175.345 8.92773Z" fill="#808385"/>
<path d="M180.372 11.6517C180.737 9.31575 182.332 9.05518 183.741 9.05518C185.347 9.05431 186.953 9.14129 188.55 9.31576L188.14 11.9626H184.23C183.407 11.9626 183.34 12.4198 183.281 12.8769L183.188 13.526L187.08 13.7043L186.669 16.3145L182.739 16.4564L182.613 17.2335C182.47 18.0929 183.01 18.0792 183.469 18.0792H187.195L186.784 20.7077C185.11 20.9364 182.038 20.982 182.038 20.982C180.866 21.014 178.986 20.6072 179.364 18.1249L180.372 11.6517Z" fill="#808385"/>
<path d="M193.523 15.25H195.218C196.696 15.25 196.764 16.8317 196.554 18.1665C196.287 19.9312 195.539 20.8682 194.405 20.8682H192.708C191.263 20.8682 190.988 19.2637 191.188 17.9608C191.41 16.5253 191.937 15.25 193.523 15.25ZM192.775 20.21H194.451C195.079 20.21 195.64 19.6112 195.881 18.0432C196.024 17.1288 196.144 15.9082 195.163 15.9082H193.435C192.771 15.9082 192.147 16.3013 191.879 18.0432C191.696 19.1997 191.923 20.21 192.775 20.21ZM192.985 16.4203H194.352C194.798 16.4203 195.31 16.6213 195.19 17.4625C195.092 18.2213 194.772 18.3768 194.451 18.4453L194.896 19.698H194.157L193.71 18.4773L193.336 18.386L193.136 19.698H192.45L192.985 16.4203ZM194.01 17.8785C194.397 17.8785 194.455 17.8192 194.512 17.4488C194.571 17.0785 194.401 17.0785 194.13 17.0785H193.569L193.439 17.8785H194.01Z" fill="#808385"/>
<path d="M50.5325 17.038C50.2736 17.038 50.02 16.9644 49.7994 16.8255C49.579 16.6865 49.4004 16.4875 49.2837 16.2507C49.1667 16.0139 49.1162 15.7484 49.1376 15.4839C49.159 15.2194 49.2515 14.9662 49.4048 14.7524L59.2771 0.914593C59.4698 0.648685 59.7462 0.459331 60.0595 0.378656C60.3729 0.297979 60.7037 0.330951 60.996 0.471974C61.2884 0.612995 61.5241 0.853379 61.6632 1.15236C61.8024 1.45134 61.8365 1.79049 61.7596 2.11231L59.4955 11.3192H69.5728C69.7629 11.3081 69.9532 11.3371 70.1321 11.4041C70.311 11.4711 70.4746 11.5749 70.613 11.7091C70.7514 11.8432 70.8617 12.0049 70.9371 12.1843C71.0125 12.3637 71.0513 12.557 71.0513 12.7523C71.0513 12.9476 71.0125 13.1409 70.9371 13.3203C70.8617 13.4997 70.7514 13.6614 70.613 13.7956C70.4746 13.9297 70.311 14.0335 70.1321 14.1005C69.9532 14.1676 69.7629 14.1965 69.5728 14.1854H57.7127C57.5018 14.1822 57.2944 14.1302 57.106 14.0332C56.9174 13.9362 56.7527 13.7968 56.6242 13.6254C56.4956 13.4539 56.4065 13.2549 56.3634 13.0432C56.3204 12.8314 56.3245 12.6125 56.3756 12.4026L57.325 8.53518L51.6601 16.4574C51.5296 16.638 51.3596 16.7847 51.1637 16.8855C50.9679 16.9863 50.7516 17.0386 50.5325 17.038Z" fill="#808385"/>
<path d="M52.3739 31.657C52.1628 31.6547 51.955 31.6032 51.766 31.5065C51.5771 31.4098 51.4119 31.2703 51.2833 31.0986C51.1545 30.927 51.0655 30.7276 51.0228 30.5155C50.9801 30.3033 50.985 30.0841 51.0369 29.8742L53.301 20.6672H43.2326C42.8757 20.6466 42.5399 20.4866 42.2944 20.2201C42.0489 19.9536 41.9121 19.6009 41.9121 19.2342C41.9121 18.8675 42.0489 18.5146 42.2944 18.2482C42.5399 17.9817 42.8757 17.8217 43.2326 17.801H55.0927C55.3035 17.8042 55.511 17.8563 55.6995 17.9532C55.888 18.0502 56.0527 18.1897 56.1813 18.361C56.3098 18.5325 56.399 18.7315 56.442 18.9433C56.4851 19.1551 56.481 19.374 56.4299 19.5839L55.4806 23.4512L61.132 15.5427C61.2371 15.3818 61.3729 15.2445 61.531 15.1388C61.6892 15.0332 61.8666 14.9615 62.0525 14.9279C62.2384 14.8944 62.4291 14.8998 62.6128 14.9439C62.7967 14.9879 62.97 15.0695 63.1222 15.184C63.2745 15.2986 63.4025 15.4435 63.4987 15.6101C63.595 15.7766 63.6573 15.9615 63.682 16.1533C63.7069 16.3453 63.6935 16.5404 63.6428 16.727C63.5921 16.9135 63.5052 17.0876 63.3872 17.2387L53.4837 31.0856C53.3541 31.262 53.1865 31.4054 52.9941 31.5045C52.8015 31.6035 52.5894 31.6557 52.3739 31.657Z" fill="#808385"/>
</svg>
