<svg width="110" height="110" viewBox="0 0 110 110" fill="none" xmlns="http://www.w3.org/2000/svg">
<circle cx="55" cy="55" r="55" fill="#323232"/>
<path d="M19.04 59.132C17.8 59.132 16.768 58.72 15.944 57.896C15.128 57.072 14.72 56.04 14.72 54.8C14.72 53.56 15.128 52.528 15.944 51.704C16.768 50.88 17.8 50.468 19.04 50.468C19.976 50.468 20.8 50.724 21.512 51.236C22.232 51.74 22.736 52.42 23.024 53.276H21.956C21.7 52.708 21.312 52.256 20.792 51.92C20.28 51.584 19.692 51.416 19.028 51.416C18.084 51.416 17.296 51.74 16.664 52.388C16.04 53.028 15.728 53.832 15.728 54.8C15.728 55.768 16.04 56.576 16.664 57.224C17.296 57.864 18.084 58.184 19.028 58.184C19.692 58.184 20.28 58.016 20.792 57.68C21.312 57.344 21.7 56.892 21.956 56.324H23.024C22.736 57.18 22.232 57.864 21.512 58.376C20.8 58.88 19.976 59.132 19.04 59.132ZM27.5708 52.268C28.5228 52.268 29.3268 52.596 29.9828 53.252C30.6468 53.9 30.9788 54.716 30.9788 55.7C30.9788 56.684 30.6508 57.504 29.9948 58.16C29.3388 58.808 28.5308 59.132 27.5708 59.132C26.6188 59.132 25.8148 58.804 25.1588 58.148C24.5028 57.492 24.1748 56.676 24.1748 55.7C24.1748 54.724 24.5028 53.908 25.1588 53.252C25.8228 52.596 26.6268 52.268 27.5708 52.268ZM29.2748 53.924C28.8108 53.452 28.2428 53.216 27.5708 53.216C26.8988 53.216 26.3308 53.452 25.8668 53.924C25.4108 54.388 25.1828 54.98 25.1828 55.7C25.1828 56.42 25.4108 57.016 25.8668 57.488C26.3308 57.952 26.8988 58.184 27.5708 58.184C28.2508 58.184 28.8188 57.952 29.2748 57.488C29.7388 57.016 29.9708 56.42 29.9708 55.7C29.9708 54.98 29.7388 54.388 29.2748 53.924ZM39.9538 52.268C40.6498 52.268 41.1898 52.484 41.5738 52.916C41.9578 53.34 42.1498 53.94 42.1498 54.716V59H41.1538V54.896C41.1538 53.776 40.6578 53.216 39.6658 53.216C39.0658 53.216 38.6058 53.44 38.2858 53.888C37.9658 54.336 37.8058 54.912 37.8058 55.616L37.8178 59H36.8098V54.896C36.8098 53.776 36.3138 53.216 35.3218 53.216C34.7298 53.216 34.2738 53.44 33.9538 53.888C33.6338 54.336 33.4738 54.912 33.4738 55.616V59H32.4778V52.4H33.4738V53.648C33.9378 52.728 34.6538 52.268 35.6218 52.268C36.1578 52.268 36.6018 52.4 36.9538 52.664C37.3058 52.92 37.5498 53.292 37.6858 53.78C38.1498 52.772 38.9058 52.268 39.9538 52.268ZM43.8685 49.688C44.0045 49.56 44.1725 49.496 44.3725 49.496C44.5725 49.496 44.7365 49.56 44.8645 49.688C45.0005 49.816 45.0685 49.972 45.0685 50.156C45.0685 50.348 45.0005 50.508 44.8645 50.636C44.7365 50.764 44.5725 50.828 44.3725 50.828C44.1725 50.828 44.0045 50.764 43.8685 50.636C43.7405 50.508 43.6765 50.348 43.6765 50.156C43.6765 49.972 43.7405 49.816 43.8685 49.688ZM43.8685 59V52.4H44.8645V59H43.8685ZM49.9941 52.268C50.7381 52.268 51.3221 52.492 51.7461 52.94C52.1701 53.388 52.3821 54.012 52.3821 54.812V59H51.3861V55.004C51.3861 53.812 50.8301 53.216 49.7181 53.216C49.0541 53.216 48.5381 53.432 48.1701 53.864C47.8101 54.296 47.6301 54.88 47.6301 55.616V59H46.6341V52.4H47.6301V53.708C48.1101 52.748 48.8981 52.268 49.9941 52.268ZM59.4512 52.4H60.4472V58.928C60.4472 59.912 60.1672 60.692 59.6072 61.268C59.0472 61.844 58.2832 62.132 57.3152 62.132C56.5072 62.132 55.8072 61.924 55.2152 61.508C54.6232 61.092 54.2472 60.508 54.0872 59.756H55.1192C55.2552 60.228 55.5152 60.592 55.8992 60.848C56.2912 61.112 56.7552 61.244 57.2912 61.244C57.9792 61.244 58.5112 61.044 58.8872 60.644C59.2632 60.252 59.4512 59.688 59.4512 58.952V57.62C59.1872 58.076 58.8352 58.436 58.3952 58.7C57.9552 58.956 57.4592 59.084 56.9072 59.084C56.0112 59.084 55.2712 58.764 54.6872 58.124C54.1112 57.476 53.8232 56.66 53.8232 55.676C53.8232 54.684 54.1112 53.868 54.6872 53.228C55.2712 52.588 56.0112 52.268 56.9072 52.268C57.4512 52.268 57.9472 52.4 58.3952 52.664C58.8432 52.928 59.1952 53.288 59.4512 53.744V52.4ZM57.0992 58.136C57.7712 58.136 58.3312 57.904 58.7792 57.44C59.2352 56.976 59.4632 56.388 59.4632 55.676C59.4632 54.964 59.2352 54.376 58.7792 53.912C58.3312 53.448 57.7712 53.216 57.0992 53.216C56.4352 53.216 55.8912 53.448 55.4672 53.912C55.0432 54.376 54.8312 54.964 54.8312 55.676C54.8312 56.388 55.0432 56.976 55.4672 57.44C55.8912 57.904 56.4352 58.136 57.0992 58.136ZM68.6137 59.132C67.7497 59.132 67.0337 58.94 66.4657 58.556C65.8977 58.172 65.5497 57.632 65.4217 56.936H66.4417C66.5697 57.384 66.8057 57.704 67.1497 57.896C67.5017 58.088 67.9897 58.184 68.6137 58.184C69.1177 58.184 69.5257 58.1 69.8377 57.932C70.1577 57.756 70.3177 57.512 70.3177 57.2C70.3177 57.008 70.2377 56.848 70.0777 56.72C69.9177 56.584 69.7457 56.488 69.5617 56.432C69.3777 56.376 69.0617 56.292 68.6137 56.18C68.5097 56.156 68.4297 56.136 68.3737 56.12C67.3817 55.872 66.6977 55.628 66.3217 55.388C65.9457 55.148 65.7577 54.772 65.7577 54.26C65.7577 53.636 66.0017 53.148 66.4897 52.796C66.9857 52.444 67.6337 52.268 68.4337 52.268C69.2017 52.268 69.8257 52.436 70.3057 52.772C70.7937 53.1 71.1057 53.564 71.2417 54.164H70.2337C69.9937 53.532 69.4017 53.216 68.4577 53.216C67.9377 53.216 67.5257 53.308 67.2217 53.492C66.9177 53.668 66.7657 53.9 66.7657 54.188C66.7657 54.436 66.8897 54.62 67.1377 54.74C67.3857 54.852 67.8817 55.004 68.6257 55.196C68.9777 55.284 69.2417 55.352 69.4177 55.4C69.6017 55.448 69.8177 55.516 70.0657 55.604C70.3217 55.692 70.5097 55.776 70.6297 55.856C70.7497 55.936 70.8737 56.04 71.0017 56.168C71.1297 56.288 71.2177 56.428 71.2657 56.588C71.3137 56.74 71.3377 56.916 71.3377 57.116C71.3377 57.764 71.0777 58.264 70.5577 58.616C70.0457 58.96 69.3977 59.132 68.6137 59.132ZM75.852 52.268C76.804 52.268 77.608 52.596 78.264 53.252C78.928 53.9 79.26 54.716 79.26 55.7C79.26 56.684 78.932 57.504 78.276 58.16C77.62 58.808 76.812 59.132 75.852 59.132C74.9 59.132 74.096 58.804 73.44 58.148C72.784 57.492 72.456 56.676 72.456 55.7C72.456 54.724 72.784 53.908 73.44 53.252C74.104 52.596 74.908 52.268 75.852 52.268ZM77.556 53.924C77.092 53.452 76.524 53.216 75.852 53.216C75.18 53.216 74.612 53.452 74.148 53.924C73.692 54.388 73.464 54.98 73.464 55.7C73.464 56.42 73.692 57.016 74.148 57.488C74.612 57.952 75.18 58.184 75.852 58.184C76.532 58.184 77.1 57.952 77.556 57.488C78.02 57.016 78.252 56.42 78.252 55.7C78.252 54.98 78.02 54.388 77.556 53.924ZM83.8911 52.268C84.8431 52.268 85.6471 52.596 86.3031 53.252C86.9671 53.9 87.2991 54.716 87.2991 55.7C87.2991 56.684 86.9711 57.504 86.3151 58.16C85.6591 58.808 84.8511 59.132 83.8911 59.132C82.9391 59.132 82.1351 58.804 81.4791 58.148C80.8231 57.492 80.4951 56.676 80.4951 55.7C80.4951 54.724 80.8231 53.908 81.4791 53.252C82.1431 52.596 82.9471 52.268 83.8911 52.268ZM85.5951 53.924C85.1311 53.452 84.5631 53.216 83.8911 53.216C83.2191 53.216 82.6511 53.452 82.1871 53.924C81.7311 54.388 81.5031 54.98 81.5031 55.7C81.5031 56.42 81.7311 57.016 82.1871 57.488C82.6511 57.952 83.2191 58.184 83.8911 58.184C84.5711 58.184 85.1391 57.952 85.5951 57.488C86.0591 57.016 86.2911 56.42 86.2911 55.7C86.2911 54.98 86.0591 54.388 85.5951 53.924ZM92.1582 52.268C92.9022 52.268 93.4862 52.492 93.9102 52.94C94.3342 53.388 94.5462 54.012 94.5462 54.812V59H93.5502V55.004C93.5502 53.812 92.9942 53.216 91.8822 53.216C91.2182 53.216 90.7022 53.432 90.3342 53.864C89.9742 54.296 89.7942 54.88 89.7942 55.616V59H88.7982V52.4H89.7942V53.708C90.2742 52.748 91.0622 52.268 92.1582 52.268Z" fill="white"/>
</svg>
