<?xml version="1.0" encoding="UTF-8"?>
<svg xmlns="http://www.w3.org/2000/svg" xmlns:xlink="http://www.w3.org/1999/xlink" width="12px" height="12px" viewBox="0 0 12 12" version="1.1">
<g id="surface1">
<path style=" stroke:none;fill-rule:nonzero;fill:rgb(19.607843%,19.607843%,19.607843%);fill-opacity:1;" d="M 12 6 C 12 9.3125 9.3125 12 6 12 C 2.6875 12 0 9.3125 0 6 C 0 2.6875 2.6875 0 6 0 C 9.3125 0 12 2.6875 12 6 Z M 12 6 "/>
<path style=" stroke:none;fill-rule:nonzero;fill:rgb(100%,100%,100%);fill-opacity:1;" d="M 2.078125 6.449219 C 1.941406 6.449219 1.828125 6.40625 1.738281 6.316406 C 1.648438 6.226562 1.605469 6.113281 1.605469 5.976562 C 1.605469 5.84375 1.648438 5.730469 1.738281 5.640625 C 1.828125 5.550781 1.941406 5.503906 2.078125 5.503906 C 2.179688 5.503906 2.269531 5.535156 2.347656 5.589844 C 2.425781 5.644531 2.480469 5.71875 2.511719 5.8125 L 2.394531 5.8125 C 2.367188 5.75 2.324219 5.699219 2.269531 5.664062 C 2.210938 5.628906 2.148438 5.609375 2.074219 5.609375 C 1.972656 5.609375 1.886719 5.644531 1.816406 5.714844 C 1.75 5.785156 1.714844 5.871094 1.714844 5.976562 C 1.714844 6.082031 1.75 6.171875 1.816406 6.242188 C 1.886719 6.3125 1.972656 6.347656 2.074219 6.347656 C 2.148438 6.347656 2.210938 6.328125 2.269531 6.292969 C 2.324219 6.253906 2.367188 6.207031 2.394531 6.144531 L 2.511719 6.144531 C 2.480469 6.238281 2.425781 6.3125 2.347656 6.367188 C 2.269531 6.421875 2.179688 6.449219 2.078125 6.449219 Z M 3.007812 5.703125 C 3.113281 5.703125 3.199219 5.738281 3.269531 5.808594 C 3.34375 5.878906 3.378906 5.96875 3.378906 6.078125 C 3.378906 6.183594 3.34375 6.273438 3.273438 6.34375 C 3.199219 6.414062 3.113281 6.449219 3.007812 6.449219 C 2.902344 6.449219 2.816406 6.414062 2.746094 6.34375 C 2.671875 6.273438 2.636719 6.183594 2.636719 6.078125 C 2.636719 5.96875 2.671875 5.882812 2.746094 5.808594 C 2.816406 5.738281 2.90625 5.703125 3.007812 5.703125 Z M 3.195312 5.882812 C 3.144531 5.832031 3.082031 5.804688 3.007812 5.804688 C 2.933594 5.804688 2.871094 5.832031 2.820312 5.882812 C 2.773438 5.933594 2.746094 5.996094 2.746094 6.078125 C 2.746094 6.15625 2.773438 6.21875 2.820312 6.269531 C 2.871094 6.320312 2.933594 6.347656 3.007812 6.347656 C 3.082031 6.347656 3.144531 6.320312 3.195312 6.269531 C 3.246094 6.21875 3.269531 6.15625 3.269531 6.078125 C 3.269531 5.996094 3.246094 5.933594 3.195312 5.882812 Z M 4.359375 5.703125 C 4.433594 5.703125 4.492188 5.726562 4.535156 5.773438 C 4.578125 5.820312 4.597656 5.882812 4.597656 5.96875 L 4.597656 6.4375 L 4.488281 6.4375 L 4.488281 5.988281 C 4.488281 5.867188 4.433594 5.804688 4.328125 5.804688 C 4.261719 5.804688 4.210938 5.828125 4.175781 5.878906 C 4.140625 5.925781 4.125 5.992188 4.125 6.066406 L 4.125 6.4375 L 4.015625 6.4375 L 4.015625 5.988281 C 4.015625 5.867188 3.960938 5.804688 3.851562 5.804688 C 3.789062 5.804688 3.738281 5.828125 3.703125 5.878906 C 3.667969 5.925781 3.652344 5.992188 3.652344 6.066406 L 3.652344 6.4375 L 3.542969 6.4375 L 3.542969 5.714844 L 3.652344 5.714844 L 3.652344 5.851562 C 3.703125 5.753906 3.78125 5.703125 3.886719 5.703125 C 3.945312 5.703125 3.992188 5.714844 4.03125 5.746094 C 4.070312 5.773438 4.097656 5.8125 4.109375 5.867188 C 4.160156 5.757812 4.246094 5.703125 4.359375 5.703125 Z M 4.785156 5.421875 C 4.800781 5.40625 4.820312 5.398438 4.839844 5.398438 C 4.863281 5.398438 4.878906 5.40625 4.894531 5.421875 C 4.910156 5.433594 4.917969 5.453125 4.917969 5.472656 C 4.917969 5.492188 4.910156 5.511719 4.894531 5.523438 C 4.878906 5.539062 4.863281 5.542969 4.839844 5.542969 C 4.820312 5.542969 4.800781 5.539062 4.785156 5.523438 C 4.773438 5.511719 4.765625 5.492188 4.765625 5.472656 C 4.765625 5.453125 4.773438 5.433594 4.785156 5.421875 Z M 4.785156 6.4375 L 4.785156 5.714844 L 4.894531 5.714844 L 4.894531 6.4375 Z M 5.453125 5.703125 C 5.535156 5.703125 5.597656 5.726562 5.644531 5.773438 C 5.691406 5.824219 5.714844 5.890625 5.714844 5.980469 L 5.714844 6.4375 L 5.605469 6.4375 L 5.605469 6 C 5.605469 5.871094 5.546875 5.804688 5.421875 5.804688 C 5.351562 5.804688 5.296875 5.828125 5.253906 5.875 C 5.214844 5.921875 5.195312 5.988281 5.195312 6.066406 L 5.195312 6.4375 L 5.085938 6.4375 L 5.085938 5.714844 L 5.195312 5.714844 L 5.195312 5.859375 C 5.25 5.753906 5.335938 5.703125 5.453125 5.703125 Z M 6.484375 5.714844 L 6.59375 5.714844 L 6.59375 6.429688 C 6.59375 6.535156 6.5625 6.621094 6.503906 6.683594 C 6.441406 6.746094 6.359375 6.777344 6.253906 6.777344 C 6.164062 6.777344 6.089844 6.753906 6.023438 6.710938 C 5.957031 6.664062 5.917969 6.601562 5.902344 6.519531 L 6.011719 6.519531 C 6.027344 6.570312 6.054688 6.609375 6.097656 6.636719 C 6.140625 6.667969 6.191406 6.679688 6.25 6.679688 C 6.324219 6.679688 6.382812 6.660156 6.425781 6.617188 C 6.464844 6.574219 6.484375 6.511719 6.484375 6.429688 L 6.484375 6.285156 C 6.457031 6.335938 6.417969 6.375 6.371094 6.402344 C 6.324219 6.429688 6.269531 6.445312 6.207031 6.445312 C 6.109375 6.445312 6.03125 6.410156 5.964844 6.339844 C 5.902344 6.269531 5.871094 6.179688 5.871094 6.074219 C 5.871094 5.964844 5.902344 5.875 5.964844 5.808594 C 6.03125 5.738281 6.109375 5.703125 6.207031 5.703125 C 6.265625 5.703125 6.320312 5.714844 6.371094 5.746094 C 6.417969 5.773438 6.457031 5.8125 6.484375 5.863281 Z M 6.230469 6.34375 C 6.300781 6.34375 6.363281 6.316406 6.414062 6.265625 C 6.460938 6.214844 6.488281 6.152344 6.488281 6.074219 C 6.488281 5.996094 6.460938 5.933594 6.414062 5.882812 C 6.363281 5.832031 6.300781 5.804688 6.230469 5.804688 C 6.15625 5.804688 6.097656 5.832031 6.050781 5.882812 C 6.003906 5.933594 5.980469 5.996094 5.980469 6.074219 C 5.980469 6.152344 6.003906 6.214844 6.050781 6.265625 C 6.097656 6.316406 6.15625 6.34375 6.230469 6.34375 Z M 7.484375 6.449219 C 7.390625 6.449219 7.3125 6.429688 7.25 6.386719 C 7.1875 6.347656 7.152344 6.289062 7.136719 6.210938 L 7.25 6.210938 C 7.261719 6.261719 7.289062 6.296875 7.324219 6.316406 C 7.363281 6.335938 7.417969 6.347656 7.484375 6.347656 C 7.539062 6.347656 7.585938 6.339844 7.617188 6.320312 C 7.652344 6.300781 7.671875 6.273438 7.671875 6.238281 C 7.671875 6.21875 7.664062 6.203125 7.644531 6.1875 C 7.628906 6.171875 7.609375 6.164062 7.589844 6.15625 C 7.570312 6.148438 7.535156 6.140625 7.484375 6.128906 C 7.472656 6.125 7.464844 6.125 7.457031 6.121094 C 7.351562 6.09375 7.277344 6.070312 7.234375 6.042969 C 7.195312 6.015625 7.171875 5.976562 7.171875 5.917969 C 7.171875 5.851562 7.199219 5.796875 7.253906 5.757812 C 7.308594 5.722656 7.378906 5.703125 7.464844 5.703125 C 7.550781 5.703125 7.617188 5.71875 7.667969 5.757812 C 7.722656 5.792969 7.757812 5.84375 7.773438 5.910156 L 7.660156 5.910156 C 7.636719 5.839844 7.570312 5.804688 7.46875 5.804688 C 7.410156 5.804688 7.367188 5.816406 7.332031 5.835938 C 7.300781 5.855469 7.285156 5.878906 7.285156 5.910156 C 7.285156 5.9375 7.296875 5.957031 7.324219 5.972656 C 7.351562 5.984375 7.40625 6 7.488281 6.019531 C 7.523438 6.03125 7.554688 6.039062 7.574219 6.042969 C 7.59375 6.050781 7.617188 6.054688 7.644531 6.066406 C 7.671875 6.074219 7.691406 6.085938 7.703125 6.09375 C 7.71875 6.101562 7.730469 6.113281 7.746094 6.128906 C 7.757812 6.140625 7.769531 6.15625 7.773438 6.171875 C 7.78125 6.191406 7.78125 6.210938 7.78125 6.230469 C 7.78125 6.300781 7.753906 6.355469 7.695312 6.394531 C 7.640625 6.433594 7.570312 6.449219 7.484375 6.449219 Z M 8.273438 5.703125 C 8.378906 5.703125 8.464844 5.738281 8.539062 5.808594 C 8.609375 5.878906 8.648438 5.96875 8.648438 6.078125 C 8.648438 6.183594 8.609375 6.273438 8.539062 6.34375 C 8.46875 6.414062 8.378906 6.449219 8.273438 6.449219 C 8.171875 6.449219 8.082031 6.414062 8.011719 6.34375 C 7.941406 6.273438 7.902344 6.183594 7.902344 6.078125 C 7.902344 5.96875 7.941406 5.882812 8.011719 5.808594 C 8.085938 5.738281 8.171875 5.703125 8.273438 5.703125 Z M 8.460938 5.882812 C 8.410156 5.832031 8.347656 5.804688 8.273438 5.804688 C 8.203125 5.804688 8.140625 5.832031 8.089844 5.882812 C 8.039062 5.933594 8.015625 5.996094 8.015625 6.078125 C 8.015625 6.15625 8.039062 6.21875 8.089844 6.269531 C 8.140625 6.320312 8.203125 6.347656 8.273438 6.347656 C 8.347656 6.347656 8.410156 6.320312 8.460938 6.269531 C 8.511719 6.21875 8.535156 6.15625 8.535156 6.078125 C 8.535156 5.996094 8.511719 5.933594 8.460938 5.882812 Z M 9.152344 5.703125 C 9.253906 5.703125 9.34375 5.738281 9.414062 5.808594 C 9.488281 5.878906 9.523438 5.96875 9.523438 6.078125 C 9.523438 6.183594 9.488281 6.273438 9.417969 6.34375 C 9.34375 6.414062 9.257812 6.449219 9.152344 6.449219 C 9.046875 6.449219 8.960938 6.414062 8.886719 6.34375 C 8.816406 6.273438 8.78125 6.183594 8.78125 6.078125 C 8.78125 5.96875 8.816406 5.882812 8.886719 5.808594 C 8.960938 5.738281 9.046875 5.703125 9.152344 5.703125 Z M 9.335938 5.882812 C 9.285156 5.832031 9.226562 5.804688 9.152344 5.804688 C 9.078125 5.804688 9.015625 5.832031 8.964844 5.882812 C 8.917969 5.933594 8.890625 5.996094 8.890625 6.078125 C 8.890625 6.15625 8.917969 6.21875 8.964844 6.269531 C 9.015625 6.320312 9.078125 6.347656 9.152344 6.347656 C 9.226562 6.347656 9.289062 6.320312 9.335938 6.269531 C 9.386719 6.21875 9.414062 6.15625 9.414062 6.078125 C 9.414062 5.996094 9.386719 5.933594 9.335938 5.882812 Z M 10.054688 5.703125 C 10.136719 5.703125 10.199219 5.726562 10.246094 5.773438 C 10.289062 5.824219 10.3125 5.890625 10.3125 5.980469 L 10.3125 6.4375 L 10.207031 6.4375 L 10.207031 6 C 10.207031 5.871094 10.144531 5.804688 10.023438 5.804688 C 9.949219 5.804688 9.894531 5.828125 9.855469 5.875 C 9.816406 5.921875 9.796875 5.988281 9.796875 6.066406 L 9.796875 6.4375 L 9.6875 6.4375 L 9.6875 5.714844 L 9.796875 5.714844 L 9.796875 5.859375 C 9.847656 5.753906 9.933594 5.703125 10.054688 5.703125 Z M 10.054688 5.703125 "/>
</g>
</svg>
