<svg width="35" height="52" viewBox="0 0 35 52" fill="none" xmlns="http://www.w3.org/2000/svg">
<path d="M8.75216 51.9999C13.5812 51.9999 17.5004 48.1172 17.5004 43.3332V34.6665H8.75216C3.92312 34.6665 0.00390625 38.5492 0.00390625 43.3332C0.00390625 48.1172 3.92312 51.9999 8.75216 51.9999Z" fill="#0ACF83"/>
<path d="M0.00390625 26.0002C0.00390625 21.2162 3.92312 17.3335 8.75216 17.3335H17.5004V34.6668H8.75216C3.92312 34.6668 0.00390625 30.7842 0.00390625 26.0002Z" fill="#A259FF"/>
<path d="M0.00390625 8.66667C0.00390625 3.88267 3.92312 0 8.75216 0H17.5004V17.3333H8.75216C3.92312 17.3333 0.00390625 13.4507 0.00390625 8.66667Z" fill="#F24E1E"/>
<path d="M17.5 0H26.2483C31.0773 0 34.9965 3.88267 34.9965 8.66667C34.9965 13.4507 31.0773 17.3333 26.2483 17.3333H17.5V0Z" fill="#FF7262"/>
<path d="M34.9965 26.0002C34.9965 30.7842 31.0773 34.6668 26.2483 34.6668C21.4192 34.6668 17.5 30.7842 17.5 26.0002C17.5 21.2162 21.4192 17.3335 26.2483 17.3335C31.0773 17.3335 34.9965 21.2162 34.9965 26.0002Z" fill="#1ABCFE"/>
</svg>
