<svg width="58" height="51" viewBox="0 0 58 51" fill="none" xmlns="http://www.w3.org/2000/svg">
<path d="M58 25.5059C58 21.727 53.1883 18.1458 45.8113 15.925C47.5137 8.52996 46.757 2.6465 43.4232 0.762859C42.6547 0.321018 41.7562 0.111725 40.775 0.111725V2.70463C41.3188 2.70463 41.7562 2.80928 42.1227 3.00695C43.7305 3.91388 44.4281 7.36722 43.8842 11.8089C43.7542 12.9019 43.5414 14.053 43.2813 15.2273C40.9641 14.6692 38.4342 14.239 35.7742 13.9599C34.1781 11.8089 32.523 9.85548 30.8561 8.14625C34.7102 4.62315 38.3278 2.69301 40.7868 2.69301V0.100098C37.5357 0.100098 33.2797 2.37907 28.9764 6.33238C24.6731 2.40232 20.417 0.146607 17.1659 0.146607V2.73951C19.6131 2.73951 23.2426 4.65803 27.0966 8.15788C25.4415 9.86711 23.7864 11.8089 22.214 13.9599C19.5422 14.239 17.0122 14.6692 14.6951 15.239C14.4232 14.0762 14.2222 12.9484 14.0803 11.867C13.5247 7.42535 14.2104 3.97202 15.8064 3.05345C16.161 2.84416 16.6221 2.75114 17.1659 2.75114V0.158235C16.1728 0.158235 15.2744 0.367527 14.4941 0.809368C11.172 2.69301 10.4272 8.56484 12.1415 15.9366C4.78801 18.1691 0 21.7387 0 25.5059C0 29.2848 4.81166 32.8661 12.1887 35.0869C10.4863 42.4819 11.243 48.3654 14.5768 50.249C15.3453 50.6909 16.2438 50.9002 17.2369 50.9002C20.488 50.9002 24.744 48.6212 29.0473 44.6679C33.3506 48.5979 37.6066 50.8537 40.8577 50.8537C41.8508 50.8537 42.7493 50.6444 43.5296 50.2025C46.8516 48.3189 47.5964 42.4471 45.8822 35.0753C53.212 32.8545 58 29.2732 58 25.5059ZM42.6074 17.7505C42.17 19.2504 41.6262 20.7969 41.0114 22.3433C40.5267 21.4131 40.0183 20.4829 39.4627 19.5527C38.9189 18.6225 38.3396 17.7156 37.7603 16.8319C39.4391 17.0761 41.0587 17.3784 42.6074 17.7505ZM37.1928 30.1336C36.2707 31.7033 35.3249 33.1917 34.3437 34.5753C32.5821 34.7265 30.797 34.8079 29 34.8079C27.2148 34.8079 25.4297 34.7265 23.68 34.5869C22.6987 33.2033 21.7411 31.7266 20.819 30.1685C19.9205 28.6453 19.1048 27.0989 18.36 25.5408C19.0929 23.9828 19.9205 22.4247 20.8072 20.9015C21.7293 19.3318 22.6751 17.8435 23.6563 16.4598C25.4179 16.3087 27.203 16.2273 29 16.2273C30.7852 16.2273 32.5703 16.3087 34.32 16.4482C35.3013 17.8319 36.2589 19.3085 37.181 20.8666C38.0795 22.3898 38.8952 23.9362 39.64 25.4943C38.8952 27.0524 38.0795 28.6105 37.1928 30.1336ZM41.0114 28.6221C41.6498 30.1802 42.1936 31.7382 42.6429 33.2498C41.0942 33.6219 39.4627 33.9358 37.7721 34.18C38.3514 33.2847 38.9307 32.3661 39.4745 31.4243C40.0183 30.4941 40.5267 29.5523 41.0114 28.6221ZM29.0236 41.0285C27.9242 39.9123 26.8247 38.6682 25.7371 37.3077C26.8011 37.3543 27.8887 37.3891 28.9882 37.3891C30.0995 37.3891 31.1989 37.3659 32.2748 37.3077C31.2108 38.6682 30.1113 39.9123 29.0236 41.0285ZM20.2279 34.18C18.5491 33.9358 16.9295 33.6335 15.3808 33.2614C15.8182 31.7615 16.362 30.215 16.9768 28.6686C17.4615 29.5988 17.9698 30.529 18.5255 31.4592C19.0811 32.3894 19.6486 33.2963 20.2279 34.18ZM28.9645 9.98338C30.064 11.0996 31.1635 12.3437 32.2511 13.7041C31.1871 13.6576 30.0995 13.6228 29 13.6228C27.8887 13.6228 26.7892 13.646 25.7134 13.7041C26.7774 12.3437 27.8769 11.0996 28.9645 9.98338ZM20.2161 16.8319C19.6368 17.7272 19.0575 18.6458 18.5137 19.5876C17.9698 20.5178 17.4615 21.448 16.9768 22.3782C16.3384 20.8201 15.7945 19.262 15.3453 17.7505C16.894 17.39 18.5255 17.0761 20.2161 16.8319ZM9.51692 31.3894C5.33184 29.6337 2.62454 27.3314 2.62454 25.5059C2.62454 23.6804 5.33184 21.3666 9.51692 19.6225C10.5336 19.1923 11.6449 18.8086 12.7917 18.4481C13.4656 20.7271 14.3522 23.0991 15.4517 25.5292C14.364 27.9477 13.4892 30.3081 12.8272 32.5754C11.6567 32.2149 10.5455 31.8196 9.51692 31.3894ZM15.8773 48.0049C14.2695 47.098 13.572 43.6447 14.1158 39.203C14.2458 38.11 14.4586 36.9589 14.7187 35.7846C17.0359 36.3427 19.5658 36.7729 22.2258 37.0519C23.8219 39.203 25.477 41.1564 27.1439 42.8656C23.2898 46.3887 19.6722 48.3189 17.2132 48.3189C16.6812 48.3073 16.232 48.2026 15.8773 48.0049ZM43.9197 39.1449C44.4753 43.5865 43.7896 47.0399 42.1936 47.9584C41.839 48.1677 41.3779 48.2607 40.8341 48.2607C38.3869 48.2607 34.7574 46.3422 30.9034 42.8424C32.5585 41.1332 34.2136 39.1914 35.786 37.0403C38.4578 36.7613 40.9878 36.331 43.3049 35.7613C43.5768 36.9357 43.7896 38.0635 43.9197 39.1449ZM48.4713 31.3894C47.4545 31.8196 46.3433 32.2033 45.1965 32.5638C44.5226 30.2848 43.636 27.9128 42.5365 25.4827C43.6241 23.0642 44.499 20.7038 45.161 18.4365C46.3314 18.7969 47.4427 19.1923 48.4831 19.6225C52.6682 21.3782 55.3755 23.6804 55.3755 25.5059C55.3636 27.3314 52.6563 29.6453 48.4713 31.3894Z" fill="#61DAFB"/>
<path d="M28.9887 30.8198C31.9726 30.8198 34.3915 28.4408 34.3915 25.5061C34.3915 22.5714 31.9726 20.1924 28.9887 20.1924C26.0048 20.1924 23.5859 22.5714 23.5859 25.5061C23.5859 28.4408 26.0048 30.8198 28.9887 30.8198Z" fill="#61DAFB"/>
</svg>
