<svg width="52" height="52" viewBox="0 0 52 52" fill="none" xmlns="http://www.w3.org/2000/svg">
<path d="M24.2984 0.0403476C24.1867 0.0505029 23.8313 0.0860463 23.5114 0.111434C16.1336 0.776604 9.22293 4.75747 4.84601 10.876C2.40875 14.278 0.84992 18.137 0.260915 22.2245C0.0527319 23.6513 0.0273438 24.0728 0.0273438 26.0073C0.0273438 27.9419 0.0527319 28.3634 0.260915 29.7902C1.6725 39.5443 8.61362 47.7396 18.0275 50.776C19.7133 51.3193 21.4905 51.69 23.5114 51.9134C24.2984 51.9997 27.7004 51.9997 28.4875 51.9134C31.9758 51.5275 34.931 50.6643 37.8455 49.1766C38.2924 48.9481 38.3787 48.8871 38.3177 48.8364C38.2771 48.8059 36.373 46.2519 34.0881 43.1647L29.9346 37.5539L24.73 29.8511C21.8662 25.6164 19.5102 22.1534 19.4899 22.1534C19.4696 22.1483 19.4493 25.5707 19.4391 29.7496C19.4239 37.0664 19.4188 37.3609 19.3274 37.5336C19.1954 37.7824 19.0938 37.8839 18.8806 37.9956C18.7181 38.0769 18.5759 38.0921 17.8092 38.0921H16.9308L16.6972 37.9449C16.5449 37.8484 16.4332 37.7214 16.357 37.5742L16.2504 37.3457L16.2605 27.165L16.2758 16.9793L16.4332 16.7813C16.5144 16.6747 16.687 16.5376 16.8089 16.4716C17.0171 16.37 17.0983 16.3598 17.9768 16.3598C19.0126 16.3598 19.1852 16.4005 19.4544 16.695C19.5305 16.7762 22.3486 21.0211 25.7201 26.1343C29.0917 31.2475 33.7022 38.2292 35.9668 41.6566L40.0797 47.8868L40.2879 47.7498C42.1311 46.5514 44.0809 44.8453 45.6245 43.0682C48.9097 39.2955 51.0271 34.6952 51.7379 29.7902C51.9461 28.3634 51.9715 27.9419 51.9715 26.0073C51.9715 24.0728 51.9461 23.6513 51.7379 22.2245C50.3263 12.4704 43.3852 4.27509 33.9713 1.23867C32.3109 0.700439 30.5439 0.329772 28.5636 0.106357C28.0762 0.0555805 24.7199 -0.000273436 24.2984 0.0403476ZM34.931 15.7505C35.1747 15.8724 35.3727 16.106 35.4438 16.3497C35.4844 16.4817 35.4946 19.3049 35.4844 25.6671L35.4692 34.7967L33.8596 32.329L32.2449 29.8613V23.2248C32.2449 18.9342 32.2652 16.5223 32.2957 16.4055C32.3769 16.1212 32.5546 15.8978 32.7984 15.7658C33.0065 15.6591 33.0827 15.649 33.8799 15.649C34.6314 15.649 34.7634 15.6591 34.931 15.7505Z" fill="black"/>
<path d="M39.8252 47.9987C39.6474 48.1104 39.5916 48.1866 39.749 48.1003C39.8607 48.0343 40.0435 47.8972 40.013 47.8921C39.9978 47.8921 39.9115 47.9429 39.8252 47.9987ZM39.4748 48.2272C39.3834 48.2983 39.3834 48.3034 39.4951 48.2475C39.556 48.2171 39.6068 48.1815 39.6068 48.1714C39.6068 48.1307 39.5814 48.1409 39.4748 48.2272ZM39.2209 48.3795C39.1295 48.4506 39.1295 48.4557 39.2412 48.3999C39.3022 48.3694 39.3529 48.3338 39.3529 48.3237C39.3529 48.2831 39.3276 48.2932 39.2209 48.3795ZM38.967 48.5319C38.8756 48.603 38.8756 48.608 38.9874 48.5522C39.0483 48.5217 39.0991 48.4862 39.0991 48.476C39.0991 48.4354 39.0737 48.4456 38.967 48.5319ZM38.5811 48.735C38.3882 48.8365 38.3983 48.8772 38.5913 48.7807C38.6776 48.735 38.7436 48.6893 38.7436 48.6791C38.7436 48.6436 38.7385 48.6487 38.5811 48.735Z" fill="black"/>
</svg>
