<svg width="152" height="36" viewBox="0 0 152 36" fill="none" xmlns="http://www.w3.org/2000/svg">
<path d="M75.828 9.39805C69.8925 9.39805 65.6129 13.269 65.6129 19.0755C65.6129 24.8819 70.4301 28.7529 76.3656 28.7529C79.9516 28.7529 83.1129 27.3335 85.0699 24.9411L80.957 22.5647C79.871 23.7529 78.2204 24.4464 76.3656 24.4464C73.7903 24.4464 71.6021 23.1024 70.7903 20.9518H85.8548C85.9731 20.3497 86.043 19.726 86.043 19.0701C86.043 13.269 81.7634 9.39805 75.828 9.39805ZM70.7419 17.1938C71.414 15.0486 73.2527 13.6991 75.8226 13.6991C78.3979 13.6991 80.2366 15.0486 80.9032 17.1938H70.7419ZM133.72 9.39805C127.785 9.39805 123.505 13.269 123.505 19.0755C123.505 24.8819 128.323 28.7529 134.258 28.7529C137.844 28.7529 141.005 27.3335 142.962 24.9411L138.849 22.5647C137.763 23.7529 136.113 24.4464 134.258 24.4464C131.683 24.4464 129.495 23.1024 128.683 20.9518H143.747C143.866 20.3497 143.935 19.726 143.935 19.0701C143.935 13.269 139.656 9.39805 133.72 9.39805ZM128.64 17.1938C129.312 15.0486 131.151 13.6991 133.72 13.6991C136.296 13.6991 138.134 15.0486 138.801 17.1938H128.64ZM107.656 19.0755C107.656 22.3013 109.763 24.4518 113.032 24.4518C115.247 24.4518 116.909 23.4464 117.763 21.8067L121.892 24.1884C120.183 27.0378 116.979 28.7529 113.032 28.7529C107.091 28.7529 102.817 24.8819 102.817 19.0755C102.817 13.269 107.097 9.39805 113.032 9.39805C116.979 9.39805 120.177 11.1131 121.892 13.9626L117.763 16.3443C116.909 14.7045 115.247 13.6991 113.032 13.6991C109.769 13.6991 107.656 15.8497 107.656 19.0755ZM152 3.48407V28.2153H147.161V3.48407H152ZM19.8656 0.795898L39.7312 35.2045H0L19.8656 0.795898ZM69.5323 3.48407L54.6344 29.2905L39.7366 3.48407H45.3226L54.6344 19.6131L63.9462 3.48407H69.5323ZM101.204 9.93569V15.1454C100.667 14.9894 100.097 14.8819 99.4839 14.8819C96.3602 14.8819 94.1075 17.0325 94.1075 20.2583V28.2153H89.2688V9.93569H94.1075V14.8819C94.1075 12.1507 97.285 9.93569 101.204 9.93569Z" fill="black"/>
</svg>
