<svg width="123" height="31" viewBox="0 0 123 31" fill="none" xmlns="http://www.w3.org/2000/svg">
<g clip-path="url(#clip0_744_885)">
<path fill-rule="evenodd" clip-rule="evenodd" d="M39.1934 24.4087L40.7223 20.8559C42.3737 22.0908 44.574 22.7328 46.7449 22.7328C48.3473 22.7328 49.3617 22.1153 49.3617 21.1793C49.3372 18.5625 39.7618 20.6109 39.6883 14.0492C39.6638 10.717 42.6236 8.14915 46.8184 8.14915C49.3127 8.14915 51.8021 8.7666 53.581 10.173L52.15 13.7993C50.5231 12.7604 48.4992 12.0205 46.5734 12.0205C45.265 12.0205 44.4025 12.6379 44.4025 13.4269C44.427 15.9947 54.0759 14.5883 54.1739 20.8559C54.1739 24.2617 51.2876 26.658 47.1418 26.658C44.1036 26.6531 41.3152 25.9376 39.1934 24.4087ZM97.9051 19.572C97.1407 20.9049 95.7098 21.8164 94.0534 21.8164C91.6081 21.8164 89.6381 19.8415 89.6381 17.4011C89.6381 14.9607 91.613 12.9858 94.0534 12.9858C95.7049 12.9858 97.1407 13.8973 97.9051 15.2302L102.124 12.8878C100.546 10.075 97.5082 8.14915 94.0534 8.14915C88.9423 8.14915 84.7966 12.2949 84.7966 17.406C84.7966 22.5171 88.9423 26.6629 94.0534 26.6629C97.5327 26.6629 100.546 24.7615 102.124 21.9242L97.9051 19.572ZM56.2958 0.470215H61.5784V26.31H56.2958V0.470215ZM104.197 0.470215V26.31H109.48V18.5576L115.748 26.31H122.51L114.537 17.1022L121.917 8.51178H115.449L109.475 15.6419V0.470215H104.197Z" fill="black"/>
<path d="M77.2742 19.6213C76.5098 20.8807 74.9318 21.8167 73.153 21.8167C70.7077 21.8167 68.7377 19.8418 68.7377 17.4014C68.7377 14.961 70.7126 12.9861 73.153 12.9861C74.9318 12.9861 76.5098 13.9711 77.2742 15.255V19.6213ZM77.2742 8.51696V10.6143C76.4118 9.15892 74.2654 8.14453 72.0161 8.14453C67.3754 8.14453 63.7246 12.2413 63.7246 17.3769C63.7246 22.5125 67.3754 26.6583 72.0161 26.6583C74.2605 26.6583 76.4069 25.6488 77.2742 24.1885V26.2858H82.5569V8.51696H77.2742Z" fill="black"/>
<path fill-rule="evenodd" clip-rule="evenodd" d="M6.54294 19.5967C6.54294 21.4 5.08752 22.8554 3.28416 22.8554C1.48081 22.8554 0.0253906 21.3951 0.0253906 19.5967C0.0253906 17.7982 1.48081 16.3379 3.28416 16.3379H6.54294V19.5967ZM8.16987 19.5967C8.16987 17.7933 9.6253 16.3379 11.4286 16.3379C13.232 16.3379 14.6874 17.7933 14.6874 19.5967V27.7411C14.6874 29.5445 13.232 30.9999 11.4286 30.9999C9.6253 30.9999 8.16987 29.5445 8.16987 27.7411V19.5967Z" fill="#E01E5A"/>
<path fill-rule="evenodd" clip-rule="evenodd" d="M11.4278 6.51755C9.62441 6.51755 8.16899 5.06212 8.16899 3.25877C8.16899 1.45542 9.62441 0 11.4278 0C13.2311 0 14.6865 1.45542 14.6865 3.25877V6.51755H11.4278ZM11.4278 8.16899C13.2311 8.16899 14.6865 9.62441 14.6865 11.4278C14.6865 13.2311 13.2311 14.6865 11.4278 14.6865H3.25877C1.45542 14.6865 0 13.2262 0 11.4278C0 9.62931 1.45542 8.16899 3.25877 8.16899H11.4278Z" fill="#36C5F0"/>
<path fill-rule="evenodd" clip-rule="evenodd" d="M24.4824 11.4278C24.4824 9.62441 25.9378 8.16899 27.7411 8.16899C29.5445 8.16899 30.9999 9.62441 30.9999 11.4278C30.9999 13.2311 29.5445 14.6865 27.7411 14.6865H24.4824V11.4278ZM22.8554 11.4278C22.8554 13.2311 21.4 14.6865 19.5967 14.6865C17.7933 14.6865 16.3379 13.2311 16.3379 11.4278V3.25877C16.3379 1.45542 17.7933 0 19.5967 0C21.4 0 22.8554 1.45542 22.8554 3.25877V11.4278Z" fill="#2EB67D"/>
<path fill-rule="evenodd" clip-rule="evenodd" d="M19.5967 24.4824C21.4 24.4824 22.8554 25.9378 22.8554 27.7411C22.8554 29.5445 21.4 30.9999 19.5967 30.9999C17.7933 30.9999 16.3379 29.5445 16.3379 27.7411V24.4824H19.5967ZM19.5967 22.8554C17.7933 22.8554 16.3379 21.4 16.3379 19.5967C16.3379 17.7933 17.7933 16.3379 19.5967 16.3379H27.7656C29.569 16.3379 31.0244 17.7933 31.0244 19.5967C31.0244 21.4 29.569 22.8554 27.7656 22.8554H19.5967Z" fill="#ECB22E"/>
</g>
<defs>
<clipPath id="clip0_744_885">
<rect width="122.51" height="31" fill="white"/>
</clipPath>
</defs>
</svg>
