<svg width="32" height="32" viewBox="0 0 32 32" fill="none" xmlns="http://www.w3.org/2000/svg">
<path fill-rule="evenodd" clip-rule="evenodd" d="M9.78677 4H21.5485C24.7889 4 27.417 6.68267 27.417 9.99467V22.0067C27.417 25.316 24.7902 28 21.5472 28H9.78677C6.54508 28 3.91699 25.3173 3.91699 22.0053V9.99467C3.91699 6.684 6.54377 4 9.78677 4V4Z" stroke="white" stroke-width="2" stroke-linecap="round" stroke-linejoin="round"/>
<path d="M22.1277 8.95104C21.8849 8.95237 21.6877 9.15371 21.6877 9.40171C21.6877 9.64971 21.8862 9.85104 22.129 9.85104C22.3718 9.85104 22.569 9.64971 22.569 9.40171C22.5703 9.15237 22.3718 8.95104 22.1277 8.95104" stroke="white" stroke-width="2" stroke-linecap="round" stroke-linejoin="round"/>
<path d="M18.9902 12.6061C20.8257 14.4806 20.8257 17.5198 18.9902 19.3943C17.1547 21.2688 14.1789 21.2688 12.3434 19.3943C10.5079 17.5198 10.5079 14.4806 12.3434 12.6061C14.1789 10.7316 17.1547 10.7316 18.9902 12.6061" stroke="white" stroke-width="2" stroke-linecap="round" stroke-linejoin="round"/>
</svg>
