<svg width="32" height="32" viewBox="0 0 32 32" fill="none" xmlns="http://www.w3.org/2000/svg">
<path fill-rule="evenodd" clip-rule="evenodd" d="M9.79199 4H21.5472C24.7889 4 27.417 6.684 27.417 9.99467V22.0067C27.417 25.316 24.7889 28 21.5472 28H9.78677C6.54507 28 3.91699 25.316 3.91699 22.0053V10C3.91699 6.68667 6.54769 4 9.79199 4V4Z" stroke="white" stroke-width="2" stroke-linecap="round" stroke-linejoin="round"/>
<path d="M10.601 14.7998V21.9998" stroke="white" stroke-width="2" stroke-linecap="round" stroke-linejoin="round"/>
<path d="M15.2998 21.9998V17.7998C15.2998 16.1425 16.6145 14.7998 18.2373 14.7998V14.7998C19.8601 14.7998 21.1748 16.1425 21.1748 17.7998V21.9998" stroke="white" stroke-width="2" stroke-linecap="round" stroke-linejoin="round"/>
<path d="M10.5987 10.4507C10.4369 10.4507 10.305 10.5853 10.3063 10.7507C10.3063 10.916 10.4382 11.0507 10.6 11.0507C10.7619 11.0507 10.8938 10.916 10.8938 10.7507C10.8938 10.584 10.7619 10.4507 10.5987 10.4507" stroke="white" stroke-width="2" stroke-linecap="round" stroke-linejoin="round"/>
</svg>
